<?xml version="1.0" encoding="UTF-8"?>
<svg version="1.1" xmlns="http://www.w3.org/2000/svg" width="792" height="343">
<path d="M0 0 C261.36 0 522.72 0 792 0 C792 113.19 792 226.38 792 343 C530.64 343 269.28 343 0 343 C0 229.81 0 116.62 0 0 Z " fill="#FCFBFA" transform="translate(0,0)"/>
<path d="M0 0 C22.84392823 -0.06771298 45.68777525 -0.12297948 68.53177834 -0.15543652 C79.13857236 -0.17090724 89.74529961 -0.19200074 100.35205078 -0.22631836 C109.59659061 -0.25621436 118.84108209 -0.27557351 128.08566892 -0.28226548 C132.98088591 -0.28617739 137.87596457 -0.29537527 142.77113724 -0.31719017 C147.37904296 -0.33755844 151.9867534 -0.34383309 156.59469986 -0.33932304 C158.28537558 -0.34014809 159.97605786 -0.34611173 161.66669464 -0.35761642 C163.97697974 -0.3725661 166.28652978 -0.36894493 168.59683228 -0.36076355 C169.88918604 -0.36352893 171.1815398 -0.36629431 172.5130558 -0.36914349 C179.45186946 0.36543032 183.26603082 3.78447562 187.515625 8.96484375 C191.15100305 13.94913839 191.18834845 18.30815125 190.875 24.2421875 C188.58736102 31.45233534 182.18657191 37.14082114 177.0625 42.5 C175.81942059 43.81556406 174.57722182 45.13196082 173.3359375 46.44921875 C172.75295898 47.06716309 172.16998047 47.68510742 171.56933594 48.32177734 C169.19017251 50.86601652 166.90249538 53.48281864 164.62890625 56.12109375 C160.39028533 61.01024642 156.00840736 65.77592474 151.671875 70.578125 C148.27655062 74.3430085 144.88941658 78.11193551 141.5625 81.9375 C137.91062947 86.13164365 134.15733816 90.23094292 130.41015625 94.33984375 C127.83006864 97.18755795 125.29798144 100.07244018 122.77734375 102.97265625 C119.94688384 106.20124678 117.06038793 109.37913175 114.18359375 112.56640625 C112.29151315 114.67511146 110.42094242 116.79919801 108.5625 118.9375 C104.91062947 123.13164365 101.15733816 127.23094292 97.41015625 131.33984375 C94.82691602 134.19103759 92.29121068 137.07883337 89.76953125 139.984375 C87.74885044 142.28607764 85.68687382 144.54764379 83.625 146.8125 C79.56859166 151.29955443 75.73176035 155.93624831 71.9453125 160.65234375 C70.3682466 162.55558995 68.75947753 164.27262063 67 166 C71.47776757 166.29272342 75.95305977 166.46874773 80.4375 166.625 C81.69755859 166.70878906 82.95761719 166.79257813 84.25585938 166.87890625 C91.40665994 167.11235688 91.40665994 167.11235688 97.63720703 164.02832031 C99.94161127 161.45709032 101.96851353 158.79015043 104 156 C105.3301436 154.52998366 106.683588 153.08062064 108.0625 151.65625 C109.03268066 150.63096191 109.03268066 150.63096191 110.02246094 149.58496094 C110.67504883 148.89692383 111.32763672 148.20888672 112 147.5 C117.00229659 142.20603781 121.95748869 136.88228455 126.8046875 131.4453125 C129.46733527 128.47944506 132.16842041 125.55074276 134.875 122.625 C140.14376728 116.92905792 145.39282068 111.21553532 150.63232422 105.49267578 C152.02579152 103.97185124 153.42087751 102.45252676 154.81640625 100.93359375 C159.00544331 96.37245625 163.18434387 91.80401471 167.3125 87.1875 C171.27615218 82.778655 175.28359912 78.41167484 179.3125 74.0625 C179.91167236 73.41112061 180.51084473 72.75974121 181.12817383 72.08862305 C181.70075928 71.472854 182.27334473 70.85708496 182.86328125 70.22265625 C183.37157471 69.67359619 183.87986816 69.12453613 184.40356445 68.55883789 C186 67 186 67 190 64 C190 116.8 190 169.6 190 224 C142.39316036 224.04030303 142.39316036 224.04030303 122.50976562 224.04882812 C108.75723906 224.05477176 95.00471861 224.06177523 81.25219727 224.07543945 C71.23824813 224.08538439 61.22430392 224.09185297 51.21034998 224.09408849 C45.90454557 224.09539593 40.59875529 224.09848381 35.2929554 224.10573006 C30.30509229 224.11248728 25.31724919 224.11461757 20.32938194 224.11310768 C18.49309811 224.11338414 16.65681365 224.11539102 14.82053375 224.11920547 C12.32479384 224.12413808 9.82913076 224.1229999 7.33338928 224.12025452 C6.59702195 224.12316736 5.86065461 224.1260802 5.10197312 224.12908131 C0.11412121 224.11412121 0.11412121 224.11412121 -1 223 C-1.15637725 221.29623233 -1.24395301 219.58609727 -1.30395508 217.8762207 C-1.34261185 216.78030106 -1.38126862 215.68438141 -1.4210968 214.55525208 C-1.55863126 209.48408747 -1.65740235 204.41300597 -1.73461914 199.34057617 C-1.77891452 196.6752692 -1.86076931 194.0189623 -1.96020508 191.35424805 C-2.85808629 166.85142153 -2.85808629 166.85142153 3.0670929 159.30375671 C5.06823619 157.15819266 7.15222832 155.21588698 9.41911316 153.35470581 C12.14158203 151.02174667 14.44064249 148.30504308 16.8125 145.625 C17.72042731 144.63856879 18.63053063 143.65413526 19.54296875 142.671875 C22.16530261 139.82024327 24.71988319 136.91869929 27.2578125 133.9921875 C29.31500399 131.63979365 31.40596915 129.31965034 33.5 127 C36.76704335 123.37976277 39.99520776 119.73016435 43.1953125 116.05078125 C45.22958141 113.73911203 47.3022231 111.4646857 49.375 109.1875 C52.57652433 105.64839998 55.63146063 102.02896894 58.625 98.3125 C61.68299604 94.53247712 64.83758786 91.04251817 68.328125 87.6640625 C70.72490834 85.27847909 72.90920973 82.72744074 75.1171875 80.16796875 C77.2157532 77.75157049 79.354397 75.37470976 81.5 73 C89.00886119 64.71528187 89.00886119 64.71528187 96 56 C64.32 55.67 32.64 55.34 0 55 C0 36.85 0 18.7 0 0 Z " fill="#0C1E2F" transform="translate(28,55)"/>
<path d="M0 0 C28.05 0 56.1 0 85 0 C85 23.79257559 85 23.79257559 78.04418945 31.78076172 C77.53073975 32.28365723 77.01729004 32.78655273 76.48828125 33.3046875 C72.70925802 37.19669075 69.61913456 41.44695973 66.5 45.875 C65.40497921 47.40627238 64.30992717 48.93752241 63.21484375 50.46875 C62.14259834 51.97871891 61.07096999 53.48912621 60 55 C59.50000488 55.70382813 59.00000977 56.40765625 58.48486328 57.1328125 C54.97422913 62.07756327 51.48376483 67.03629392 48 72 C47.39913574 72.8554541 46.79827148 73.7109082 46.17919922 74.59228516 C44.2849907 77.28989097 42.3921811 79.98847177 40.5 82.6875 C39.91226807 83.52522949 39.32453613 84.36295898 38.71899414 85.22607422 C38.16203857 86.02158691 37.60508301 86.81709961 37.03125 87.63671875 C36.54205078 88.33498779 36.05285156 89.03325684 35.54882812 89.75268555 C33.66855959 92.48091251 31.83794468 95.24308298 30 98 C48.81 98.33 67.62 98.66 87 99 C87 105.93 87 112.86 87 120 C57.96 120 28.92 120 -1 120 C-1 99.35437884 -1 99.35437884 4.8125 92.375 C6.01746655 90.78035541 7.22188519 89.18529667 8.42578125 87.58984375 C9.03115723 86.81882324 9.6365332 86.04780273 10.26025391 85.25341797 C12.83361058 81.92026023 15.15676378 78.43404098 17.5 74.9375 C21.91869602 68.47909512 26.48441678 62.13143621 31.08056641 55.79858398 C39.18624274 44.62586241 47.08444202 33.30793996 55 22 C36.85 22 18.7 22 0 22 C0 14.74 0 7.48 0 0 Z " fill="#0C1D2E" transform="translate(280,55)"/>
<path d="M0 0 C10.3633021 8.52652281 15.37847088 17.57498894 18.09375 30.72265625 C18.09375 35.34265625 18.09375 39.96265625 18.09375 44.72265625 C-2.69625 44.72265625 -23.48625 44.72265625 -44.90625 44.72265625 C-42.12420358 56.81523954 -42.12420358 56.81523954 -34.125 63.671875 C-27.68669404 66.49502106 -21.26592334 66.70144629 -14.59375 64.53515625 C-10.25926196 62.7219242 -7.99116948 59.89249521 -5.90625 55.72265625 C1.35375 55.72265625 8.61375 55.72265625 16.09375 55.72265625 C14.57918035 64.81007412 10.40259909 71.45968408 3.2265625 77.2578125 C-7.51285626 84.63378692 -20.36934908 86.13070986 -33.0546875 84.2578125 C-43.13310894 82.06854101 -52.66772282 77.1432035 -58.90625 68.72265625 C-66.62292256 55.50982303 -70.71736086 42.04113781 -67.06640625 26.73828125 C-63.82170148 15.25701821 -57.50953087 4.68016973 -46.90625 -1.27734375 C-31.67523372 -8.65172762 -14.38111298 -10.60346555 0 0 Z " fill="#0C1C2D" transform="translate(442.90625,92.27734375)"/>
<path d="M0 0 C7.59 0 15.18 0 23 0 C23.33 13.86 23.66 27.72 24 42 C26.64 39.69 29.28 37.38 32 35 C40.79910228 30.00946438 48.9826614 28.60531297 58.9375 30.9375 C66.98796022 33.62098674 73.09051463 39.63333132 77 47.0625 C81.11883351 55.9210206 81.27336999 64.29413624 81.1953125 73.90625 C81.19157544 75.24002875 81.18873175 76.57381028 81.18673706 77.90759277 C81.17915506 81.39282001 81.15955436 84.8778766 81.1373291 88.36303711 C81.11675256 91.92950127 81.10771027 95.4959934 81.09765625 99.0625 C81.07630243 106.0417432 81.04116561 113.0208458 81 120 C73.41 120 65.82 120 58 120 C57.9906543 118.34548828 57.98130859 116.69097656 57.97167969 114.98632812 C57.93170853 108.8285055 57.86592835 102.6711787 57.79248047 96.51367188 C57.76212477 93.85208389 57.74307886 91.1910998 57.72900391 88.52929688 C57.70751785 84.69618357 57.66083437 80.86406398 57.609375 77.03125 C57.60814636 75.84760864 57.60691772 74.66396729 57.60565186 73.44445801 C57.48366839 66.51245796 56.75437633 61.8837498 53 56 C49.11138213 52.47311403 45.44992511 51.19498641 40.3046875 50.83984375 C34.79598912 51.2226516 30.62933994 53.9744313 27.0625 58.0625 C24.27519254 62.03230154 23.86913406 64.74790601 23.79467773 69.48120117 C23.77473251 70.60213669 23.75478729 71.7230722 23.73423767 72.87797546 C23.71752518 74.08742325 23.70081268 75.29687103 23.68359375 76.54296875 C23.66281265 77.78170242 23.64203156 79.0204361 23.62062073 80.29670715 C23.56628203 83.58625256 23.51604049 86.87582726 23.46777344 90.16546631 C23.41749354 93.52377814 23.36184139 96.88200046 23.30664062 100.24023438 C23.19946949 106.8267538 23.09819524 113.41334089 23 120 C15.41 120 7.82 120 0 120 C0 80.4 0 40.8 0 0 Z " fill="#0E1F2F" transform="translate(680,55)"/>
<path d="M0 0 C0 33.99 0 67.98 0 103 C-31.35 103 -62.7 103 -95 103 C-91.95102498 98.42653747 -89.53643163 95.33783079 -85.6875 91.625 C-81.97561545 87.9953851 -78.43753 84.29943272 -75.06640625 80.3515625 C-72.15787838 77.04166878 -69.13916839 73.83858003 -66.125 70.625 C-61.44918346 65.63656509 -56.82288887 60.61300903 -52.265625 55.515625 C-49.57620734 52.52944401 -46.85365044 49.57530188 -44.125 46.625 C-43.36425171 45.80237671 -43.36425171 45.80237671 -42.58813477 44.96313477 C-42.08080811 44.41455811 -41.57348145 43.86598145 -41.05078125 43.30078125 C-34.88676272 36.63533637 -28.7399326 29.95461098 -22.6875 23.1875 C-18.7179966 18.76413323 -14.67944299 14.40784473 -10.625 10.0625 C-10.01744873 9.41112061 -9.40989746 8.75974121 -8.78393555 8.08862305 C-1.22023165 0 -1.22023165 0 0 0 Z " fill="#2C5865" transform="translate(218,119)"/>
<path d="M0 0 C8.14830063 6.69971385 13.08754228 14.04885286 14.15686035 24.76278687 C14.27273673 28.64164861 14.26397671 32.5077456 14.203125 36.38671875 C14.1956452 37.80588475 14.18996051 39.22506122 14.18597412 40.64424133 C14.17085406 44.34172135 14.13169465 48.03855177 14.0871582 51.73577881 C14.04590708 55.523633 14.02790008 59.3115943 14.0078125 63.09960938 C13.96518295 70.50423374 13.89494978 77.90819233 13.8125 85.3125 C6.5525 85.3125 -0.7075 85.3125 -8.1875 85.3125 C-8.1968457 83.65798828 -8.20619141 82.00347656 -8.21582031 80.29882812 C-8.25579147 74.1410055 -8.32157165 67.9836787 -8.39501953 61.82617188 C-8.42537523 59.16458389 -8.44442114 56.5035998 -8.45849609 53.84179688 C-8.47998215 50.00868357 -8.52666563 46.17656398 -8.578125 42.34375 C-8.57935364 41.16010864 -8.58058228 39.97646729 -8.58184814 38.75695801 C-8.72460803 30.64428835 -9.64624982 24.76521893 -15.6875 18.875 C-20.14016151 16.09208656 -23.94556714 15.87567226 -29.1875 16.3125 C-34.81544166 17.99232289 -38.19855905 20.79017288 -41.16390991 25.80078125 C-43.2244089 30.85690089 -42.91210082 36.17671796 -42.89453125 41.5625 C-42.90965256 42.81635498 -42.92477386 44.07020996 -42.94035339 45.36206055 C-42.97589483 48.66987596 -42.99037838 51.97687625 -42.99438477 55.28485107 C-43.00376086 58.67053699 -43.04120179 62.05590508 -43.07617188 65.44140625 C-43.13895258 72.06517106 -43.17134536 78.68846401 -43.1875 85.3125 C-50.4475 85.3125 -57.7075 85.3125 -65.1875 85.3125 C-65.1875 56.6025 -65.1875 27.8925 -65.1875 -1.6875 C-58.2575 -1.6875 -51.3275 -1.6875 -44.1875 -1.6875 C-43.8575 1.6125 -43.5275 4.9125 -43.1875 8.3125 C-42.73375 7.61125 -42.28 6.91 -41.8125 6.1875 C-30.50925842 -6.19224078 -14.32642607 -7.58457851 0 0 Z " fill="#0C1D2D" transform="translate(540.1875,89.6875)"/>
<path d="M0 0 C7.59 0 15.18 0 23 0 C23 7.26 23 14.52 23 22 C29.6 22 36.2 22 43 22 C43 27.94 43 33.88 43 40 C36.4 40 29.8 40 23 40 C23.09693137 46.19340413 23.19966055 52.38613844 23.31738281 58.57910156 C23.35566306 60.68581254 23.3905176 62.79258867 23.421875 64.89941406 C23.46754598 67.92797121 23.52553745 70.95608022 23.5859375 73.984375 C23.59748871 74.92617615 23.60903992 75.86797729 23.62094116 76.83831787 C23.64081085 77.71892883 23.66068054 78.59953979 23.68115234 79.50683594 C23.69447601 80.27960876 23.70779968 81.05238159 23.7215271 81.84857178 C24.0376333 84.29074769 24.70521923 85.91246055 26 88 C29.04112998 89.52056499 32.28197797 89.3741161 35.625 89.5625 C38.05875 89.706875 40.4925 89.85125 43 90 C43 96.27 43 102.54 43 109 C39.37417333 109.10895639 35.75169005 109.18777738 32.125 109.25 C31.11179687 109.28351563 30.09859375 109.31703125 29.0546875 109.3515625 C21.22836609 109.45189995 14.21289008 108.36121554 7.94213867 103.3581543 C1.06863242 96.33466116 -0.34223452 87.26258046 -0.33988953 77.74031067 C-0.32440567 76.79089096 -0.30892181 75.84147125 -0.29296875 74.86328125 C-0.28872391 73.85782761 -0.28447906 72.85237396 -0.28010559 71.81645203 C-0.26349646 68.64817954 -0.22587897 65.48057575 -0.1875 62.3125 C-0.17243016 60.14649365 -0.15874581 57.98047719 -0.14648438 55.81445312 C-0.11365142 50.54271649 -0.06199487 45.27147106 0 40 C-4.62 40 -9.24 40 -14 40 C-14 34.06 -14 28.12 -14 22 C-9.38 22 -4.76 22 0 22 C0 14.74 0 7.48 0 0 Z " fill="#0C1D2D" transform="translate(622,66)"/>
<path d="M0 0 C7.70867757 5.45707822 13.06534313 11.59053252 15 21 C15.85286656 29.7523683 14.54500996 37.03011921 9.38671875 44.26171875 C3.32902269 51.52826769 -2.80737735 55.12736563 -12.125 56.2578125 C-19.97398905 56.67829406 -27.6746367 54.15147918 -33.875 49.3125 C-39.29049662 44.19641786 -42.62726623 37.50946759 -43.23828125 30.1171875 C-43.44271375 21.18671514 -42.18884038 13.95157833 -36.75 6.6875 C-26.68563295 -3.14813143 -12.91737912 -6.23189588 0 0 Z " fill="#0D1D2C" transform="translate(673,225)"/>
<path d="M0 0 C4.90538146 3.24156787 7.78712602 6.47743625 10 12 C10.49230725 14.99657344 10.60405771 17.96736609 10.6875 21 C10.72093506 21.85561523 10.75437012 22.71123047 10.78881836 23.59277344 C11.14099753 33.72455644 11.08671444 43.86404591 11 54 C6.71 54 2.42 54 -2 54 C-2.33 52.35 -2.66 50.7 -3 49 C-3.47050781 49.34933594 -3.94101562 49.69867188 -4.42578125 50.05859375 C-5.04839844 50.51363281 -5.67101562 50.96867187 -6.3125 51.4375 C-6.92738281 51.88996094 -7.54226563 52.34242188 -8.17578125 52.80859375 C-13.8311908 56.50216958 -21.51871677 55.49485938 -28 55 C-32.97018418 53.51298555 -36.15280602 50.27079097 -39 46 C-40.79768318 40.60695046 -40.66854633 35.08429151 -38.9375 29.6875 C-34.59248536 23.66054421 -29.28484551 21.20020623 -22 20 C-18.65982922 19.78491706 -15.34516405 19.80819949 -12 19.875 C-11.12988281 19.88402344 -10.25976562 19.89304688 -9.36328125 19.90234375 C-7.2420658 19.92565381 -5.12099438 19.96151421 -3 20 C-3.46393619 14.91575916 -3.46393619 14.91575916 -5.875 10.5625 C-10.52872768 8.23563616 -14.89517438 8.20556643 -20 9 C-23.16620095 11.18618637 -23.7896387 12.36891611 -25 16 C-29.29 16 -33.58 16 -38 16 C-36.0515792 9.23180142 -34.27471254 3.81762367 -28.09765625 -0.25390625 C-19.38403498 -4.77616539 -8.70871162 -4.46300576 0 0 Z " fill="#0E1D2C" transform="translate(388,225)"/>
<path d="M0 0 C5.68706374 3.50685124 8.43083396 7.96632854 10.16015625 14.33203125 C10.42098475 17.44740152 10.39368275 20.54355494 10.35546875 23.66796875 C10.35263885 24.54732086 10.34980896 25.42667297 10.34689331 26.33267212 C10.33575337 29.12426719 10.31066036 31.91553415 10.28515625 34.70703125 C10.27511845 36.60676618 10.265994 38.50650617 10.2578125 40.40625 C10.23583431 45.04830232 10.20134735 49.69011127 10.16015625 54.33203125 C5.87015625 54.33203125 1.58015625 54.33203125 -2.83984375 54.33203125 C-3.33484375 52.35203125 -3.33484375 52.35203125 -3.83984375 50.33203125 C-4.39929688 50.69296875 -4.95875 51.05390625 -5.53515625 51.42578125 C-12.8849686 55.67969193 -19.44312824 56.43390886 -27.83984375 55.33203125 C-32.78377002 53.75934404 -35.98506854 50.61419406 -38.83984375 46.33203125 C-40.77346245 40.53117515 -40.83343394 34.43385665 -38.21484375 28.89453125 C-32.94704337 23.21085189 -27.08196146 20.67349609 -19.41113281 20.17382812 C-16.88431421 20.13645206 -14.36638435 20.15657806 -11.83984375 20.20703125 C-10.96972656 20.21605469 -10.09960938 20.22507813 -9.203125 20.234375 C-7.08190955 20.25768506 -4.96083813 20.29354546 -2.83984375 20.33203125 C-3.76263346 14.86060635 -3.76263346 14.86060635 -6.65234375 10.3515625 C-9.22578451 9.15215529 -11.00720791 8.9633967 -13.83984375 9.01953125 C-14.68546875 9.02339844 -15.53109375 9.02726563 -16.40234375 9.03125 C-19.08325699 9.36206782 -20.63752967 9.76098392 -22.83984375 11.33203125 C-23.49984375 12.98203125 -24.15984375 14.63203125 -24.83984375 16.33203125 C-29.12984375 16.33203125 -33.41984375 16.33203125 -37.83984375 16.33203125 C-36.48302889 8.19114207 -33.50517734 4.13107143 -26.83984375 -0.66796875 C-18.12149085 -4.14073885 -8.53441814 -3.92722006 0 0 Z " fill="#0C1C2B" transform="translate(539.83984375,224.66796875)"/>
<path d="M0 0 C4.95 0 9.9 0 15 0 C29.07576572 39.83952909 29.07576572 39.83952909 35 58 C36.87473215 55.18790178 37.79671992 52.99872068 38.86352539 49.82592773 C39.22052017 48.77150986 39.57751495 47.71709198 39.94532776 46.63072205 C40.51573036 44.92439354 40.51573036 44.92439354 41.09765625 43.18359375 C41.49198349 42.01619156 41.88631073 40.84878937 42.29258728 39.64601135 C43.33921484 36.5456397 44.38218112 33.44406983 45.42315674 30.34179688 C46.89231239 25.96588696 48.36744009 21.59198902 49.84312439 17.21827698 C50.62845177 14.88957789 51.41199453 12.56027607 52.19361877 10.23033142 C52.5474614 9.1790657 52.90130402 8.12779999 53.26586914 7.04467773 C53.57738419 6.11662827 53.88889923 5.1885788 54.20985413 4.23240662 C55 2 55 2 56 0 C60.95 0 65.9 0 71 0 C68.82837954 7.47338455 66.36435232 14.79262501 63.7265625 22.11328125 C63.32094086 23.2446904 62.91531921 24.37609955 62.49740601 25.54179382 C61.64306317 27.9230824 60.78746185 30.3039198 59.93066406 32.68432617 C58.63295504 36.29039457 57.33959499 39.89799988 56.046875 43.50585938 C55.21119546 45.83342596 54.37526603 48.16090286 53.5390625 50.48828125 C53.15867828 51.5491243 52.77829407 52.60996735 52.38638306 53.70295715 C49.69365549 61.17647889 46.87093404 68.59306609 44 76 C38.06 76 32.12 76 26 76 C25.56768066 74.7531543 25.13536133 73.50630859 24.68994141 72.22167969 C22.66989506 66.39723036 20.64766703 60.57353967 18.625 54.75 C18.26229004 53.70533569 17.89958008 52.66067139 17.52587891 51.58435059 C12.17141278 36.16413549 12.17141278 36.16413549 6.7109375 20.78125 C6.47267242 20.11740295 6.23440735 19.45355591 5.98892212 18.76959229 C4.91328098 15.77753309 3.83178934 12.78769876 2.74462891 9.79980469 C2.37515137 8.77790039 2.00567383 7.75599609 1.625 6.703125 C1.30789063 5.83333008 0.99078125 4.96353516 0.6640625 4.06738281 C0 2 0 2 0 0 Z " fill="#0C1C2C" transform="translate(279,203)"/>
<path d="M0 0 C7.26 0 14.52 0 22 0 C22 28.71 22 57.42 22 87 C14.74 87 7.48 87 0 87 C0 58.29 0 29.58 0 0 Z " fill="#0B1B2B" transform="translate(572,88)"/>
<path d="M0 0 C4.84124313 3.85098886 8.40671704 9.09475697 9.34875488 15.2956543 C9.45934605 17.79017065 9.45086122 20.25381124 9.390625 22.75 C9.38496521 23.64871826 9.37930542 24.54743652 9.37347412 25.47338867 C9.35125919 28.31615708 9.30109249 31.15761895 9.25 34 C9.22991569 35.93878375 9.21166832 37.87758746 9.1953125 39.81640625 C9.15144346 44.54476669 9.08252133 49.2721626 9 54 C4.71 54 0.42 54 -4 54 C-4.01458252 52.94087402 -4.02916504 51.88174805 -4.04418945 50.79052734 C-4.10237327 46.84292658 -4.17960407 42.89588429 -4.26245117 38.94873047 C-4.29560636 37.24374488 -4.32366737 35.53865202 -4.34643555 33.83349609 C-4.38015568 31.37551366 -4.43247794 28.91850594 -4.48828125 26.4609375 C-4.49467117 25.70444916 -4.5010611 24.94796082 -4.50764465 24.16854858 C-4.63788973 19.42903259 -5.38504101 16.10079249 -8 12 C-12.04485657 9.30342896 -15.25307196 9.4577323 -20 10 C-22.81731349 11.1988568 -24.35704185 12.07953667 -26.10302734 14.57910156 C-27.42759006 18.15405091 -27.35889561 21.71773189 -27.4140625 25.484375 C-27.43342865 26.29996887 -27.4527948 27.11556274 -27.4727478 27.95587158 C-27.53239575 30.55380892 -27.57886942 33.15179093 -27.625 35.75 C-27.66319342 37.51434194 -27.70224595 39.27866551 -27.7421875 41.04296875 C-27.83808505 45.36182946 -27.92217047 49.68077744 -28 54 C-32.29 54 -36.58 54 -41 54 C-41 35.85 -41 17.7 -41 -1 C-37.04 -1 -33.08 -1 -29 -1 C-28.67 0.98 -28.34 2.96 -28 5 C-27.56429687 4.59007812 -27.12859375 4.18015625 -26.6796875 3.7578125 C-18.56799455 -3.58133827 -9.89176313 -5.17543725 0 0 Z " fill="#0A1A29" transform="translate(739,225)"/>
<path d="M0 0 C4.29 0 8.58 0 13 0 C13.01458252 1.09465576 13.02916504 2.18931152 13.04418945 3.31713867 C13.10228739 7.38956905 13.17951927 11.46145315 13.26245117 15.53344727 C13.29564654 17.29377355 13.32369524 19.05420488 13.34643555 20.81469727 C13.3800812 23.34957525 13.4324006 25.88349523 13.48828125 28.41796875 C13.49467117 29.20149216 13.5010611 29.98501556 13.50764465 30.7922821 C13.62952117 35.35100949 14.14128701 38.39340958 17 42 C20.71387818 44.47591878 23.69582561 44.53907468 28 44 C32.24926058 42.20586776 34.0250742 40.11814361 36 36 C36.31888452 33.14408395 36.48775347 30.49327071 36.51171875 27.63671875 C36.52966995 26.84473587 36.54762115 26.05275299 36.56611633 25.23677063 C36.62006838 22.72040038 36.65406563 20.20421815 36.6875 17.6875 C36.72068651 15.97588538 36.75517741 14.26429552 36.79101562 12.55273438 C36.87578582 8.36862558 36.94266843 4.18457107 37 0 C41.29 0 45.58 0 50 0 C50 18.15 50 36.3 50 55 C46.04 55 42.08 55 38 55 C37.505 52.03 37.505 52.03 37 49 C36.18595703 49.63228516 36.18595703 49.63228516 35.35546875 50.27734375 C34.64003906 50.82519531 33.92460937 51.37304688 33.1875 51.9375 C32.47980469 52.48277344 31.77210938 53.02804687 31.04296875 53.58984375 C25.75552326 57.23949542 19.14982561 56.40948284 13 56 C7.15062136 54.11984258 3.94655899 50.31153926 0.87356567 45.0836792 C-0.10448008 42.75078808 -0.24188119 41.1198019 -0.22705078 38.59863281 C-0.22689972 37.7380426 -0.22674866 36.87745239 -0.22659302 35.99078369 C-0.21627045 35.07085632 -0.20594788 34.15092896 -0.1953125 33.203125 C-0.1924826 32.25435486 -0.18965271 31.30558472 -0.18673706 30.32806396 C-0.17555448 27.30191361 -0.1504533 24.2760607 -0.125 21.25 C-0.11496772 19.19661886 -0.1058423 17.14323308 -0.09765625 15.08984375 C-0.07562141 10.05978146 -0.04110462 5.02994114 0 0 Z " fill="#0D1E2E" transform="translate(439,224)"/>
<path d="M0 0 C4.29 0 8.58 0 13 0 C13 4.29 13 8.58 13 13 C17.29 13 21.58 13 26 13 C26 16.3 26 19.6 26 23 C21.71 23 17.42 23 13 23 C13.0688642 27.3605117 13.15682189 31.72009398 13.26245117 36.07983398 C13.29569423 37.56279854 13.32372823 39.04588944 13.34643555 40.52905273 C13.37999468 42.66184293 13.43230638 44.79347612 13.48828125 46.92578125 C13.51446533 48.20880127 13.54064941 49.49182129 13.56762695 50.8137207 C13.73753145 53.95695412 13.73753145 53.95695412 15.390625 55.91015625 C17.50793378 57.34396487 19.15051861 57.50366077 21.6875 57.6875 C23.110625 57.790625 24.53375 57.89375 26 58 C26 61.3 26 64.6 26 68 C23.45716766 68.10871967 20.91904912 68.18762401 18.375 68.25 C17.66214844 68.28351563 16.94929687 68.31703125 16.21484375 68.3515625 C10.99138935 68.4474057 8.1705853 67.40314728 4 64 C-0.04800961 59.39364424 -0.13949644 55.1729164 -0.09765625 49.26953125 C-0.0962413 48.51911057 -0.09482635 47.76868988 -0.09336853 46.99552917 C-0.0877756 44.6011454 -0.07522444 42.20685547 -0.0625 39.8125 C-0.05748408 38.18815239 -0.05292134 36.56380332 -0.04882812 34.93945312 C-0.03780848 30.95959931 -0.02054873 26.97981556 0 23 C-2.97 23 -5.94 23 -9 23 C-9 19.7 -9 16.4 -9 13 C-6.03 13 -3.06 13 0 13 C0 8.71 0 4.42 0 0 Z " fill="#0B1A2A" transform="translate(567,211)"/>
<path d="M0 0 C4.62 0 9.24 0 14 0 C14 25.08 14 50.16 14 76 C9.38 76 4.76 76 0 76 C0 50.92 0 25.84 0 0 Z " fill="#182838" transform="translate(411,203)"/>
<path d="M0 0 C4.25672123 1.97070427 7.13678475 4.51331487 9.30078125 8.75 C11.07606877 14.46265706 11.17624604 20.90030244 9.046875 26.51171875 C6.76347214 30.42096225 4.35105764 33.45295728 0 35 C-5.08071272 35.67345018 -8.82439264 35.59849102 -13.4375 33.25 C-18.59367495 28.72262687 -20.68484885 24.46666268 -21.3125 17.5625 C-20.76562968 11.32817831 -18.26892786 6.52765076 -14 2 C-9.5289753 -0.72856967 -5.0911385 -0.63639231 0 0 Z " fill="#FAFAF9" transform="translate(664,234)"/>
<path d="M0 0 C4.29 0 8.58 0 13 0 C13 18.15 13 36.3 13 55 C8.71 55 4.42 55 0 55 C0 36.85 0 18.7 0 0 Z " fill="#091929" transform="translate(606,224)"/>
<path d="M0 0 C3.9182186 2.26844235 6.25146026 4.53639192 8.6875 8.375 C9.1825 12.335 9.1825 12.335 9.6875 16.375 C-2.8525 16.375 -15.3925 16.375 -28.3125 16.375 C-26.94423275 8.1653965 -23.77164116 4.18499874 -17.3125 -0.625 C-11.58405171 -2.53448276 -5.53687495 -2.53685715 0 0 Z " fill="#FBFAFA" transform="translate(427.3125,105.625)"/>
<path d="M0 0 C3.50724448 2.03858585 5.68867705 4.06603115 7 8 C7.39544498 12.19171681 7.26960901 14.48075302 5.3125 18.25 C1.7943527 22.43374273 -0.43322583 23.77256504 -5.875 24.5625 C-10.22431982 24.41394638 -12.53711456 22.47942734 -15.65234375 19.60546875 C-18.57690904 16.1214214 -18.29895873 12.33490154 -18 8 C-14.61977998 -0.07497005 -8.00626218 -2.50195693 0 0 Z " fill="#0C1C2B" transform="translate(589,54)"/>
<path d="M0 0 C7.59 0 15.18 0 23 0 C23 7.26 23 14.52 23 22 C22.34 20.68 21.68 19.36 21 18 C19.68 18 18.36 18 17 18 C17 16.02 17 14.04 17 12 C16.34 12 15.68 12 15 12 C15 13.98 15 15.96 15 18 C10.66666667 18 6.33333333 18 2 18 C2 12.72 2 7.44 2 2 C1.34 2 0.68 2 0 2 C0 1.34 0 0.68 0 0 Z " fill="#152433" transform="translate(622,66)"/>
<path d="M0 0 C0.74958984 0.00451172 1.49917969 0.00902344 2.27148438 0.01367188 C4.11852383 0.02543646 5.96552213 0.04337135 7.8125 0.0625 C8.43358626 7.98134984 8.43358626 7.98134984 6.125 12 C1.75370874 15.89871923 -2.30878856 16.52759897 -8.03125 16.375 C-11.41800163 15.88416643 -13.00920624 14.64922384 -15.1875 12.0625 C-16.3125 9.125 -16.3125 9.125 -16.1875 6.0625 C-11.39594959 0.07306199 -7.24144587 -0.08221729 0 0 Z " fill="#FAF9F9" transform="translate(377.1875,253.9375)"/>
<path d="M0 0 C1.13598633 0.00483398 1.13598633 0.00483398 2.29492188 0.00976562 C3.47344727 0.02233398 3.47344727 0.02233398 4.67578125 0.03515625 C5.47306641 0.03966797 6.27035156 0.04417969 7.09179688 0.04882812 C9.05732382 0.06059775 11.0228121 0.07853277 12.98828125 0.09765625 C13.15898509 8.18712152 13.15898509 8.18712152 9.98828125 12.09765625 C5.7883751 15.79757357 2.54681035 16.70357603 -2.890625 16.41015625 C-6.00350611 15.95153656 -7.73737318 15.30092852 -10.01171875 13.09765625 C-11.07421875 9.72265625 -11.07421875 9.72265625 -11.01171875 6.09765625 C-8.09472559 1.3054532 -5.48966192 -0.04127565 0 0 Z " fill="#FAF9F9" transform="translate(524.01171875,253.90234375)"/>
<path d="M0 0 C2.93423195 1.79646854 4.47205355 2.9441071 6 6 C6.039992 7.99960012 6.04346799 10.00047242 6 12 C2.5842767 12.22634311 -0.83247322 12.42792113 -4.25 12.625 C-5.70212891 12.72167969 -5.70212891 12.72167969 -7.18359375 12.8203125 C-8.58544922 12.89765625 -8.58544922 12.89765625 -10.015625 12.9765625 C-10.87446289 13.02893066 -11.73330078 13.08129883 -12.61816406 13.13525391 C-15.22879397 12.9870078 -16.76943856 12.32298482 -19 11 C-18.34 10.67 -17.68 10.34 -17 10 C-20.96 9.67 -24.92 9.34 -29 9 C-29 8.67 -29 8.34 -29 8 C-24.71 8 -20.42 8 -16 8 C-15.67 6.35 -15.34 4.7 -15 3 C-10.81553867 -0.91449608 -5.41005054 -0.82616535 0 0 Z " fill="#F2F2F3" transform="translate(531,233)"/>
<path d="M0 0 C3.04253562 1.30394384 3.85783248 2.27886828 6 5 C6.14453125 8.68359375 6.14453125 8.68359375 6 12 C2.5430244 12.25417629 -0.91528826 12.47407622 -4.375 12.6875 C-5.35984375 12.76033203 -6.3446875 12.83316406 -7.359375 12.90820312 C-8.77089844 12.99038086 -8.77089844 12.99038086 -10.2109375 13.07421875 C-11.51490479 13.16062622 -11.51490479 13.16062622 -12.84521484 13.2487793 C-13.55629395 13.16668213 -14.26737305 13.08458496 -15 13 C-15.66 12.01 -16.32 11.02 -17 10 C-19.88595946 9.41518879 -19.88595946 9.41518879 -23.125 9.3125 C-24.22070312 9.24675781 -25.31640625 9.18101562 -26.4453125 9.11328125 C-27.70988281 9.05720703 -27.70988281 9.05720703 -29 9 C-29 8.67 -29 8.34 -29 8 C-24.71 8 -20.42 8 -16 8 C-15.67 6.35 -15.34 4.7 -15 3 C-10.82973244 -1.30235748 -5.59216909 -0.84729835 0 0 Z " fill="#F2F3F4" transform="translate(379,233)"/>
<path d="M0 0 C0.66 0 1.32 0 2 0 C2 3.3 2 6.6 2 10 C2.99 10.33 3.98 10.66 5 11 C4.01 11 3.02 11 2 11 C2.01160156 11.63808594 2.02320313 12.27617188 2.03515625 12.93359375 C2.04417969 13.75988281 2.05320312 14.58617188 2.0625 15.4375 C2.07410156 16.26121094 2.08570313 17.08492187 2.09765625 17.93359375 C2 20 2 20 1 21 C-3.33530918 21.14393457 -7.66157731 21.04212061 -12 21 C-12 26.28 -12 31.56 -12 37 C-8.8134375 36.9690625 -8.8134375 36.9690625 -5.5625 36.9375 C-3.37500389 36.91626217 -1.18639453 36.92741054 1 37 C2.59661046 38.59661046 2.15673048 40.28779033 2.18945312 42.50048828 C2.20617065 43.45883575 2.22288818 44.41718323 2.2401123 45.40457153 C2.25368774 46.44926605 2.26726318 47.49396057 2.28125 48.5703125 C2.30886414 50.17469681 2.30886414 50.17469681 2.33703613 51.81149292 C2.39599253 55.24927072 2.44866658 58.68710044 2.5 62.125 C2.56785766 66.62770428 2.6416672 71.13025787 2.71875 75.6328125 C2.73232544 76.66536163 2.74590088 77.69791077 2.7598877 78.76174927 C2.84838069 83.93480447 3.1179541 88.8996678 4 94 C0.05830484 90.05830484 -0.11347771 84.21041154 -0.22705078 78.86914062 C-0.22673821 76.96481439 -0.21568388 75.0604673 -0.1953125 73.15625 C-0.1924826 72.14655151 -0.18965271 71.13685303 -0.18673706 70.09655762 C-0.1756153 66.89758033 -0.15052563 63.6988915 -0.125 60.5 C-0.11495985 58.32031657 -0.10583582 56.14062871 -0.09765625 53.9609375 C-0.0757022 48.64051525 -0.04122793 43.32030639 0 38 C-4.62 38 -9.24 38 -14 38 C-14 32.06 -14 26.12 -14 20 C-9.38 20 -4.76 20 0 20 C0 13.4 0 6.8 0 0 Z " fill="#020D1B" transform="translate(622,68)"/>
<path d="M0 0 C10.56 0 21.12 0 32 0 C31.67 1.32 31.34 2.64 31 4 C30.34 4 29.68 4 29 4 C29 5.98 29 7.96 29 10 C24.71 10 20.42 10 16 10 C14 4 14 4 14 2 C11.36 2.33 8.72 2.66 6 3 C6 2.34 6 1.68 6 1 C4.68 1.33 3.36 1.66 2 2 C1.67 3.98 1.34 5.96 1 8 C4.465 7.505 4.465 7.505 8 7 C7.01 8.485 7.01 8.485 6 10 C3.5 10.3125 3.5 10.3125 1 10 C-1 8 -1 8 -1.1875 5 C-1 2 -1 2 0 0 Z " fill="#FDF5F5" transform="translate(62,279)"/>
<path d="M0 0 C4.11289267 0.85685264 5.59686932 2.20235933 8 5.625 C8.1519185 9.95467714 7.67311337 11.85572758 4.8125 15.125 C2 16.625 2 16.625 -1.0625 16.625 C-4.45720755 15.46935488 -5.93751175 14.56007943 -8 11.625 C-8.5625 8.6875 -8.5625 8.6875 -8 5.625 C-5.54405875 2.30225596 -4.0743356 0.84881992 0 0 Z " fill="#0D1B2A" transform="translate(612,200.375)"/>
<path d="M0 0 C4.29 0 8.58 0 13 0 C13 18.15 13 36.3 13 55 C9.04 55 5.08 55 1 55 C1 52.69 1 50.38 1 48 C1.33 48 1.66 48 2 48 C2 49.98 2 51.96 2 54 C5.3 54 8.6 54 12 54 C12 36.84 12 19.68 12 2 C8.7 2 5.4 2 2 2 C2.01047363 2.92337158 2.02094727 3.84674316 2.03173828 4.7980957 C2.0658319 8.22536718 2.09090446 11.65245833 2.10986328 15.07983398 C2.11991821 16.56293583 2.13356404 18.04601788 2.15087891 19.52905273 C2.17515006 21.66134531 2.18648799 23.79337569 2.1953125 25.92578125 C2.20578613 27.20880127 2.21625977 28.49182129 2.22705078 29.8137207 C2 33 2 33 0 36 C0 24.12 0 12.24 0 0 Z " fill="#01070E" transform="translate(476,224)"/>
<path d="M0 0 C0.66 0 1.32 0 2 0 C2 3.3 2 6.6 2 10 C2.99 10.33 3.98 10.66 5 11 C4.01 11 3.02 11 2 11 C2.01160156 11.63808594 2.02320313 12.27617188 2.03515625 12.93359375 C2.04417969 13.75988281 2.05320312 14.58617188 2.0625 15.4375 C2.07410156 16.26121094 2.08570313 17.08492187 2.09765625 17.93359375 C2 20 2 20 1 21 C-3.33530918 21.14393457 -7.66157731 21.04212061 -12 21 C-12 26.28 -12 31.56 -12 37 C-8.04 37 -4.08 37 0 37 C0 37.33 0 37.66 0 38 C-4.62 38 -9.24 38 -14 38 C-14 32.06 -14 26.12 -14 20 C-9.38 20 -4.76 20 0 20 C0 13.4 0 6.8 0 0 Z " fill="#0B1420" transform="translate(622,68)"/>
<path d="M0 0 C2.4375 0.25 2.4375 0.25 5 1 C5.66 1.99 6.32 2.98 7 4 C7.66 4.33 8.32 4.66 9 5 C9.66 5.33 10.32 5.66 11 6 C11 4.68 11 3.36 11 2 C9.68 1.67 8.36 1.34 7 1 C8.65614657 0.61781233 10.32457024 0.28604898 12 0 C13 1 13 1 13.0625 4.5625 C13.041875 5.696875 13.02125 6.83125 13 8 C10.85423363 8.02685938 8.70837355 8.04633088 6.5625 8.0625 C5.36753906 8.07410156 4.17257813 8.08570313 2.94140625 8.09765625 C0 8 0 8 -1 7 C-1.125 4 -1.125 4 -1 1 C-0.67 0.67 -0.34 0.34 0 0 Z " fill="#FCE9E9" transform="translate(78,281)"/>
<path d="M0 0 C1.81242052 -0.02687279 3.62495233 -0.04633715 5.4375 -0.0625 C6.44683594 -0.07410156 7.45617187 -0.08570313 8.49609375 -0.09765625 C11 0 11 0 12 1 C12.125 4 12.125 4 12 7 C11 8 11 8 8.5 8.125 C6 8 6 8 5 7 C4.95936168 5.33382885 4.957279 3.66611905 5 2 C4.01 2.495 4.01 2.495 3 3 C2.34444881 5.52733235 2.34444881 5.52733235 2 8 C1.34 8 0.68 8 0 8 C0 5.36 0 2.72 0 0 Z " fill="#172939" transform="translate(69,262)"/>
<path d="M0 0 C0.99 0.33 1.98 0.66 3 1 C3.33 0.67 3.66 0.34 4 0 C6.5 -0.125 6.5 -0.125 9 0 C10 1 10 1 10.0625 4.5625 C10.041875 5.696875 10.02125 6.83125 10 8 C6.7 8 3.4 8 0 8 C0 5.36 0 2.72 0 0 Z " fill="#162839" transform="translate(109,262)"/>
<path d="M0 0 C0.99 0.33 1.98 0.66 3 1 C4.2684375 0.7215625 4.2684375 0.7215625 5.5625 0.4375 C6.7690625 0.2209375 6.7690625 0.2209375 8 0 C10 2 10 2 10.125 5.125 C10.08375 6.07375 10.0425 7.0225 10 8 C7.125 8.125 7.125 8.125 4 8 C3.34 7.34 2.68 6.68 2 6 C1.34 6.66 0.68 7.32 0 8 C0 5.36 0 2.72 0 0 Z " fill="#FCEBEA" transform="translate(718,57)"/>
<path d="M0 0 C2.33294775 -0.04241723 4.66702567 -0.04092937 7 0 C8 1 8 1 8.0625 3.5625 C8.041875 4.366875 8.02125 5.17125 8 6 C7.195625 6.268125 6.39125 6.53625 5.5625 6.8125 C4.716875 7.204375 3.87125 7.59625 3 8 C2.67 8.99 2.34 9.98 2 11 C1.34 11 0.68 11 0 11 C0 7.37 0 3.74 0 0 Z " fill="#162839" transform="translate(685,73)"/>
<path d="M0 0 C0.33 0 0.66 0 1 0 C1 4.95 1 9.9 1 15 C-0.98 15 -2.96 15 -5 15 C-6 14 -6 14 -6.125 11 C-6 8 -6 8 -5 7 C-3.33382885 6.95936168 -1.66611905 6.957279 0 7 C0 4.69 0 2.38 0 0 Z " fill="#16293A" transform="translate(700,69)"/>
<path d="M0 0 C0.66 0 1.32 0 2 0 C2.33 0.66 2.66 1.32 3 2 C5.02463255 2.65213292 5.02463255 2.65213292 7 3 C7.625 5.375 7.625 5.375 8 8 C6 10 6 10 2.875 10.125 C1.451875 10.063125 1.451875 10.063125 0 10 C0 6.7 0 3.4 0 0 Z " fill="#FCE6E7" transform="translate(119,279)"/>
<path d="M0 0 C2.31 0 4.62 0 7 0 C7.38218767 1.65614657 7.71395102 3.32457024 8 5 C7 6 7 6 4.4375 6.0625 C3.2309375 6.0315625 3.2309375 6.0315625 2 6 C2 7.32 2 8.64 2 10 C1.34 10 0.68 10 0 10 C0 6.7 0 3.4 0 0 Z " fill="#FDECEC" transform="translate(140,279)"/>
<path d="M0 0 C0.33 0 0.66 0 1 0 C1 3.3 1 6.6 1 10 C-0.98 10 -2.96 10 -5 10 C-5.625 7.125 -5.625 7.125 -6 4 C-5.34 3.34 -4.68 2.68 -4 2 C-2.68 2 -1.36 2 0 2 C0 1.34 0 0.68 0 0 Z " fill="#FCE4E5" transform="translate(112,279)"/>
<path d="M0 0 C1.4540625 0.0309375 1.4540625 0.0309375 2.9375 0.0625 C3.2675 0.7225 3.5975 1.3825 3.9375 2.0625 C0.9675 1.5675 0.9675 1.5675 -2.0625 1.0625 C-0.67054085 3.8464183 1.09325779 4.04148997 3.9375 5.0625 C3.6075 6.7125 3.2775 8.3625 2.9375 10.0625 C0.9575 10.0625 -1.0225 10.0625 -3.0625 10.0625 C-3.3925 9.0725 -3.7225 8.0825 -4.0625 7.0625 C-1.0925 7.5575 -1.0925 7.5575 1.9375 8.0625 C1.9375 7.4025 1.9375 6.7425 1.9375 6.0625 C0.2875 5.7325 -1.3625 5.4025 -3.0625 5.0625 C-3.625 3.125 -3.625 3.125 -4.0625 1.0625 C-3.0625 0.0625 -3.0625 0.0625 0 0 Z " fill="#FCE7E8" transform="translate(182.0625,278.9375)"/>
<path d="M0 0 C1.98 0 3.96 0 6 0 C6.33 1.65 6.66 3.3 7 5 C6.01 5.495 6.01 5.495 5 6 C5.66 6.33 6.32 6.66 7 7 C4.625 7.625 4.625 7.625 2 8 C0 6 0 6 -0.125 2.875 C-0.08375 1.92625 -0.0425 0.9775 0 0 Z " fill="#1D1C2D" transform="translate(683,57)"/>
<path d="M0 0 C2.31 0 4.62 0 7 0 C7 0.66 7 1.32 7 2 C5.35 2 3.7 2 2 2 C2 2.99 2 3.98 2 5 C3.65 5 5.3 5 7 5 C7 5.66 7 6.32 7 7 C5.35 7 3.7 7 2 7 C2 8.32 2 9.64 2 11 C1.34 11 0.68 11 0 11 C0 7.37 0 3.74 0 0 Z " fill="#192A3B" transform="translate(61,259)"/>
<path d="M0 0 C2.31 0 4.62 0 7 0 C7 0.66 7 1.32 7 2 C5.35 2 3.7 2 2 2 C2 2.99 2 3.98 2 5 C3.65 5 5.3 5 7 5 C6.67 5.66 6.34 6.32 6 7 C4.68 7 3.36 7 2 7 C2 8.32 2 9.64 2 11 C1.34 11 0.68 11 0 11 C0 7.37 0 3.74 0 0 Z " fill="#FCE7E8" transform="translate(670,54)"/>
<path d="M0 0 C1.29550781 -0.02126953 1.29550781 -0.02126953 2.6171875 -0.04296875 C5.2491288 0.19890748 6.86480544 0.85766459 9.125 2.1875 C6.24084117 3.62957941 3.70778472 3.28144887 0.5 3.25 C-0.68851562 3.24097656 -1.87703125 3.23195313 -3.1015625 3.22265625 C-4.01679688 3.21105469 -4.93203125 3.19945313 -5.875 3.1875 C-6.205 2.5275 -6.535 1.8675 -6.875 1.1875 C-4.42528376 -0.03735812 -2.73265539 0.02027192 0 0 Z " fill="#162431" transform="translate(418.875,84.8125)"/>
<path d="M0 0 C1.99954746 -0.04254356 4.00041636 -0.04080783 6 0 C7 1 7 1 7.0625 4.5625 C7.041875 5.696875 7.02125 6.83125 7 8 C6.34 8 5.68 8 5 8 C5 6.02 5 4.04 5 2 C4.01 2 3.02 2 2 2 C2 3.98 2 5.96 2 8 C1.34 8 0.68 8 0 8 C0 5.36 0 2.72 0 0 Z " fill="#FCE7E8" transform="translate(160,281)"/>
<path d="M0 0 C0.99 0.33 1.98 0.66 3 1 C3 1.99 3 2.98 3 4 C3.66 4 4.32 4 5 4 C5.33 2.68 5.66 1.36 6 0 C6.66 0 7.32 0 8 0 C7.60246179 1.46366342 7.18118616 2.9208935 6.75 4.375 C6.51796875 5.18710937 6.2859375 5.99921875 6.046875 6.8359375 C4.7785108 9.45785454 3.67576692 9.99382318 1 11 C1 10.34 1 9.68 1 9 C1.66 9 2.32 9 3 9 C2.01 6.03 1.02 3.06 0 0 Z " fill="#FCE7E7" transform="translate(127,281)"/>
<path d="M0 0 C2.64 0 5.28 0 8 0 C8 0.66 8 1.32 8 2 C7.01 2 6.02 2 5 2 C5 4.97 5 7.94 5 11 C4.34 11 3.68 11 3 11 C3 8.03 3 5.06 3 2 C2.01 2 1.02 2 0 2 C0 1.34 0 0.68 0 0 Z " fill="#FCE7E7" transform="translate(704,54)"/>
<path d="M0 0 C1.4540625 0.0309375 1.4540625 0.0309375 2.9375 0.0625 C2.9375 0.7225 2.9375 1.3825 2.9375 2.0625 C1.9475 2.0625 0.9575 2.0625 -0.0625 2.0625 C-0.0625 5.0325 -0.0625 8.0025 -0.0625 11.0625 C-0.7225 11.0625 -1.3825 11.0625 -2.0625 11.0625 C-2.0625 8.0925 -2.0625 5.1225 -2.0625 2.0625 C-2.7225 1.7325 -3.3825 1.4025 -4.0625 1.0625 C-3.0625 0.0625 -3.0625 0.0625 0 0 Z " fill="#192A3B" transform="translate(100.0625,258.9375)"/>
<path d="M0 0 C1.67542976 0.28604898 3.34385343 0.61781233 5 1 C5.33 1.99 5.66 2.98 6 4 C5.34 4 4.68 4 4 4 C4 3.34 4 2.68 4 2 C3.01 2 2.02 2 1 2 C1 3.32 1 4.64 1 6 C2.65 6 4.3 6 6 6 C5.67 6.66 5.34 7.32 5 8 C3.33388095 8.042721 1.66617115 8.04063832 0 8 C-1 7 -1 7 -1.125 4 C-1 1 -1 1 0 0 Z " fill="#FCE6E6" transform="translate(99,281)"/>
<path d="M0 0 C0 4.13781054 -1.71509607 5.20919996 -4.5 8.1875 C-5.3353125 9.08855469 -6.170625 9.98960937 -7.03125 10.91796875 C-7.6809375 11.60503906 -8.330625 12.29210937 -9 13 C-9.66 12.67 -10.32 12.34 -11 12 C-9.54234835 10.37438849 -8.08385614 8.74953066 -6.625 7.125 C-5.81289062 6.22007812 -5.00078125 5.31515625 -4.1640625 4.3828125 C-2.80923795 2.89103817 -1.42494565 1.42494565 0 0 Z " fill="#1D4652" transform="translate(202,135)"/>
<path d="M0 0 C0.66 0 1.32 0 2 0 C3.04005702 3.38018531 3.08004482 6.4780279 3 10 C2.01 10 1.02 10 0 10 C-1.125 2.25 -1.125 2.25 0 0 Z " fill="#18293A" transform="translate(639,74)"/>
<path d="M0 0 C0.33 0 0.66 0 1 0 C1 1.98 1 3.96 1 6 C-0.98 6 -2.96 6 -5 6 C-5.33 4.68 -5.66 3.36 -6 2 C-5.34 2 -4.68 2 -4 2 C-4 2.66 -4 3.32 -4 4 C-3.01 4 -2.02 4 -1 4 C-0.67 2.68 -0.34 1.36 0 0 Z " fill="#192A3B" transform="translate(636,78)"/>
<path d="M0 0 C0 3.77910478 -0.99703962 4.46106101 -3.5 7.1875 C-4.1496875 7.90292969 -4.799375 8.61835938 -5.46875 9.35546875 C-5.9740625 9.89816406 -6.479375 10.44085938 -7 11 C-7.66 10.67 -8.32 10.34 -9 10 C-6.03 6.7 -3.06 3.4 0 0 Z " fill="#1A424E" transform="translate(190,148)"/>
<path d="M0 0 C1.65 0 3.3 0 5 0 C4.01 1.485 4.01 1.485 3 3 C2.61500109 4.65549531 2.27206865 6.3222433 2 8 C1.34 8 0.68 8 0 8 C0 5.36 0 2.72 0 0 Z " fill="#182A3A" transform="translate(103,262)"/>
<path d="M0 0 C1.65 0 3.3 0 5 0 C4.67 0.66 4.34 1.32 4 2 C3.34 2 2.68 2 2 2 C2 3.98 2 5.96 2 8 C1.34 8 0.68 8 0 8 C0 5.36 0 2.72 0 0 Z " fill="#FBE7E7" transform="translate(712,57)"/>
<path d="M0 0 C0.99 0.33 1.98 0.66 3 1 C2.67 2.65 2.34 4.3 2 6 C1.01 5.67 0.02 5.34 -1 5 C-1.6875 2.9375 -1.6875 2.9375 -2 1 C-1.34 0.67 -0.68 0.34 0 0 Z " fill="#FCF2F1" transform="translate(87,282)"/>
<path d="M0 0 C1.65 0 3.3 0 5 0 C4.34 0.66 3.68 1.32 3 2 C2.60235737 3.98821313 2.26224651 5.98944339 2 8 C1.34 8 0.68 8 0 8 C0 5.36 0 2.72 0 0 Z " fill="#FCE7E8" transform="translate(71,281)"/>
<path d="M0 0 C1.32 0 2.64 0 4 0 C3.67 1.65 3.34 3.3 3 5 C2.01 4.67 1.02 4.34 0 4 C0 2.68 0 1.36 0 0 Z " fill="#FDF9F7" transform="translate(121,283)"/>
<path d="M0 0 C1.32 0 2.64 0 4 0 C3.67 1.65 3.34 3.3 3 5 C2.01 4.67 1.02 4.34 0 4 C0 2.68 0 1.36 0 0 Z " fill="#FCF8F7" transform="translate(108,283)"/>
<path d="M0 0 C0.33 0.66 0.66 1.32 1 2 C1.66 2.33 2.32 2.66 3 3 C2.34 3 1.68 3 1 3 C1.66 5.31 2.32 7.62 3 10 C2.01 10 1.02 10 0 10 C-0.66 7.36 -1.32 4.72 -2 2 C-1.34 2 -0.68 2 0 2 C0 1.34 0 0.68 0 0 Z " fill="#FDE5E5" transform="translate(94,279)"/>
<path d="M0 0 C0 3.9519815 -1.37176172 5.14648416 -4 8 C-4.99 8.33 -5.98 8.66 -7 9 C-5.44499019 5.18315774 -2.96404505 2.80804268 0 0 Z " fill="#1C434E" transform="translate(146,196)"/>
<path d="M0 0 C1.32 0.33 2.64 0.66 4 1 C4 2.32 4 3.64 4 5 C2.68 5 1.36 5 0 5 C0 3.35 0 1.7 0 0 Z " fill="#18293B" transform="translate(624,76)"/>
<path d="M0 0 C0.33 0.66 0.66 1.32 1 2 C1.66 2.33 2.32 2.66 3 3 C2.34 3 1.68 3 1 3 C1.66 5.31 2.32 7.62 3 10 C2.01 10 1.02 10 0 10 C-1.125 2.25 -1.125 2.25 0 0 Z " fill="#FCE4E5" transform="translate(170,279)"/>
</svg>
