<?xml version="1.0" encoding="UTF-8"?>
<svg version="1.1" xmlns="http://www.w3.org/2000/svg" width="1024" height="331">
<path d="M0 0 C337.92 0 675.84 0 1024 0 C1024 109.23 1024 218.46 1024 331 C686.08 331 348.16 331 0 331 C0 221.77 0 112.54 0 0 Z " fill="#FDFCFC" transform="translate(0,0)"/>
<path d="M0 0 C0.96268799 0.01240723 1.92537598 0.02481445 2.91723633 0.03759766 C31.73140187 0.93065292 55.41109671 19.5483117 75.5 38.5625 C77.43717703 40.29202848 79.37468301 42.02118858 81.3125 43.75 C91.43089901 52.94136893 100.74270088 63.10110111 109.2578125 73.78515625 C111.95617379 77.1275515 114.75402823 80.3751224 117.5625 83.625 C121.63305998 88.34519849 125.58915696 93.13085715 129.45703125 98.01953125 C136.63472231 106.95390387 144.21088227 115.57902575 151.67578125 124.2734375 C152.13162598 124.80678711 152.5874707 125.34013672 153.05712891 125.88964844 C154.09142137 127.08879767 155.13668509 128.27851764 156.18896484 129.46191406 C156.73891113 130.08549805 157.28885742 130.70908203 157.85546875 131.3515625 C158.36102295 131.9182666 158.86657715 132.4849707 159.38745117 133.06884766 C160.5 134.5625 160.5 134.5625 160.5 136.5625 C143.66155097 136.65625277 126.82318426 136.72662989 109.98453331 136.76974869 C102.16472992 136.79030833 94.34508941 136.81830138 86.52539062 136.86425781 C79.7037779 136.90432912 72.88228322 136.92998067 66.06055605 136.93885398 C62.45385077 136.94403471 58.84748299 136.95607037 55.24088669 136.98542023 C51.1986924 137.01804315 47.15707187 137.01844655 43.11474609 137.01660156 C41.94013321 137.03098267 40.76552032 137.04536377 39.55531311 137.06018066 C25.37681365 136.99066417 12.61355507 133.06819916 2.1015625 123.34375 C-13.52153623 106.92083392 -21.12366455 85.1245266 -26.5 63.5625 C-26.67934082 62.8804248 -26.85868164 62.19834961 -27.04345703 61.49560547 C-29.38454739 52.42184611 -29.81854018 43.51800233 -29.9375 34.1875 C-29.95989746 33.09348877 -29.98229492 31.99947754 -30.00537109 30.87231445 C-29.9780754 21.43303261 -27.84906027 13.0402639 -21.24145508 6.01782227 C-15.00498913 0.80604973 -7.86689251 -0.12984666 0 0 Z " fill="#4D235D" transform="translate(85.5,30.4375)"/>
<path d="M0 0 C1.34121176 0.00084779 2.68242491 0.00036817 4.02363586 -0.00132751 C7.63881434 -0.00218298 11.25368997 0.01536923 14.86879849 0.03639436 C18.65640782 0.05523669 22.44402523 0.05691752 26.23167419 0.06047058 C33.39254951 0.06976897 40.55328628 0.09435261 47.71410078 0.12451905 C55.87132937 0.15813205 64.02856481 0.17456636 72.18584549 0.18960536 C88.95527673 0.22090434 105.72456888 0.27362154 122.49389648 0.34057617 C120.03660114 4.7303201 117.78707935 8.41335202 114.30639648 12.09057617 C109.95138753 16.80614593 105.87926625 21.68982144 101.8425293 26.6784668 C87.33771005 44.55479001 72.71383465 62.38756034 56.26733398 78.53198242 C54.51564038 80.31840123 52.91344097 82.17388165 51.30639648 84.09057617 C30.46108352 108.24466897 -1.40935997 133.34941729 -34.18188477 135.76245117 C-44.04715985 136.19754872 -51.38576952 135.24486128 -59.29516602 128.90698242 C-67.20446986 121.0950838 -67.90995291 109.75416159 -68.00610352 99.27807617 C-67.74016241 72.20483205 -58.7415514 40.64652345 -41.50610352 19.34057617 C-40.81774414 18.47819336 -40.12938477 17.61581055 -39.42016602 16.72729492 C-28.4977061 3.79280291 -16.52011428 -0.14377223 0 0 Z " fill="#E1493A" transform="translate(123.506103515625,177.659423828125)"/>
<path d="M0 0 C0.64195312 0.43570313 1.28390625 0.87140625 1.9453125 1.3203125 C8.54350227 6.37248291 11.12459027 13.0735888 13 21 C13.30205216 24.29618428 13.33377285 27.56646389 13.3125 30.875 C13.30686035 31.80046631 13.3012207 32.72593262 13.29541016 33.67944336 C12.73257334 66.09271382 -0.64859884 100.46149862 -23 124 C-26.21588867 126.84194813 -29.52340724 129.485018 -33 132 C-42.62450686 124.51427245 -49.90500519 114.53816838 -57.22753906 104.88110352 C-60.66464934 100.37176132 -64.28199093 96.03823248 -67.96923828 91.73217773 C-70.83252557 88.38831405 -73.62267579 84.99913151 -76.375 81.5625 C-79.9158219 77.20310099 -83.65628132 73.08945102 -87.5 69 C-103 52.46018667 -103 52.46018667 -103 47 C-88.45863053 23.84754022 -61.4525538 6.4841846 -36 -2 C-35.21238281 -2.26941406 -34.42476563 -2.53882812 -33.61328125 -2.81640625 C-23.42325874 -5.679222 -8.92177953 -6.16483478 0 0 Z " fill="#22A2C5" transform="translate(298,34)"/>
<path d="M0 0 C22.51669117 11.97338372 34.52048238 38.15389704 41.6796875 61.5 C42.12213836 62.99930948 42.56229527 64.49929808 43 66 C43.31759277 67.04414063 43.31759277 67.04414063 43.64160156 68.109375 C46.57665412 78.00761881 47.39484604 87.62470092 47.5 97.9375 C47.51853027 99.062771 47.53706055 100.18804199 47.55615234 101.34741211 C47.49108133 109.98335672 46.02887906 118.39077383 40.6875 125.4375 C32.50319644 133.24113827 23.55226085 133.45525891 12.765625 133.2734375 C-12.04120284 132.27043926 -35.41586724 116.31557103 -53 100 C-53.95132813 99.11957031 -54.90265625 98.23914063 -55.8828125 97.33203125 C-61.07769488 92.33098776 -65.31441948 87.20256233 -69 81 C-68.43152344 80.443125 -67.86304688 79.88625 -67.27734375 79.3125 C-62.284808 74.37830774 -57.56360472 69.3285518 -53 64 C-52.05695225 62.91973177 -51.11284759 61.84038574 -50.16796875 60.76171875 C-39.36555485 48.40871114 -28.76744224 35.89812761 -19.0078125 22.69921875 C-13.09222604 14.74655291 -6.70513626 7.29493992 0 0 Z " fill="#4CA883" transform="translate(263,179)"/>
<path d="M0 0 C26.73 0 53.46 0 81 0 C81 20.63051471 81 20.63051471 75.3125 27 C74.10953267 28.49908236 72.90774296 29.99911036 71.70703125 31.5 C71.08908691 32.2425 70.47114258 32.985 69.83447266 33.75 C66.87992899 37.37377886 64.20451816 41.18827964 61.5 45 C60.41805863 46.50100432 59.3347225 48.00100427 58.25 49.5 C57.71375 50.2425 57.1775 50.985 56.625 51.75 C55 54 53.375 56.25 51.75 58.5 C50.9444165 59.61544189 50.9444165 59.61544189 50.12255859 60.75341797 C49.04741089 62.24205913 47.97221616 63.73066632 46.89697266 65.21923828 C44.06299751 69.14274046 41.2300234 73.06696058 38.3984375 76.9921875 C37.80869141 77.80945313 37.21894531 78.62671875 36.61132812 79.46875 C35.48212022 81.03363654 34.35319839 82.59872956 33.22460938 84.1640625 C32.71478516 84.87046875 32.20496094 85.576875 31.6796875 86.3046875 C31.23351074 86.92327637 30.78733398 87.54186523 30.32763672 88.17919922 C28.90317999 90.13278477 27.45065725 92.06579034 26 94 C44.81 94.33 63.62 94.66 83 95 C83 100.61 83 106.22 83 112 C65.82406569 113.0798731 48.69541612 113.12103669 31.49517822 113.06866455 C27.7064267 113.05826183 23.91766807 113.05383139 20.12890625 113.04882812 C12.75258534 113.03824237 5.37629868 113.021275 -2 113 C-2.95297536 96.36957157 -2.95297536 96.36957157 1.65600586 90.77001953 C2.18202393 90.20653809 2.70804199 89.64305664 3.25 89.0625 C4.36359103 87.73029495 5.47417854 86.39557455 6.58203125 85.05859375 C7.15260254 84.3919873 7.72317383 83.72538086 8.31103516 83.03857422 C11.06457168 79.71506599 13.48790622 76.17507071 15.9375 72.625 C16.93746005 71.19697598 17.93877421 69.76989926 18.94140625 68.34375 C19.69381592 67.27253906 19.69381592 67.27253906 20.46142578 66.1796875 C26.44696487 57.70001549 32.55136976 49.30227547 38.72265625 40.95703125 C39.34285645 40.11833496 39.96305664 39.27963867 40.60205078 38.41552734 C41.78444423 36.8191861 42.96885966 35.22433954 44.15576172 33.63134766 C44.97391357 32.52799072 44.97391357 32.52799072 45.80859375 31.40234375 C46.28095459 30.76804443 46.75331543 30.13374512 47.23999023 29.48022461 C49.91304965 25.71332065 52.43786075 21.84320888 55 18 C36.85 18 18.7 18 0 18 C0 12.06 0 6.12 0 0 Z " fill="#19235F" transform="translate(398,39)"/>
<path d="M0 0 C9.51971165 6.71577359 14.34079255 14.77094497 17 26 C17.29338669 29.10948079 17.33428777 32.19062386 17.3125 35.3125 C17.30686035 36.15409668 17.3012207 36.99569336 17.29541016 37.86279297 C17.07710687 49.0351662 13.99103644 57.40692313 6.40625 65.75390625 C-1.36865617 73.07038635 -11.47390105 75.3282967 -21.8359375 75.21484375 C-31.69454257 74.54543229 -39.98090373 70.44089013 -46.75 63.3125 C-55.52719103 52.73177656 -56.05959169 39.12219131 -55 26 C-53.50109709 18.18000938 -50.41080533 11.82903183 -45 6 C-44.23042969 5.16855469 -44.23042969 5.16855469 -43.4453125 4.3203125 C-32.42223242 -6.2808315 -13.06120505 -7.47794302 0 0 Z " fill="#101B5A" transform="translate(900,223)"/>
<path d="M0 0 C8.50682273 6.63416039 12.62331148 16.31014505 14.2890625 26.78515625 C14.37914501 28.82526018 14.41918051 30.86807087 14.4140625 32.91015625 C14.41792969 34.46089844 14.41792969 34.46089844 14.421875 36.04296875 C14.2890625 38.78515625 14.2890625 38.78515625 13.2890625 41.78515625 C-5.1909375 41.78515625 -23.6709375 41.78515625 -42.7109375 41.78515625 C-40.94680736 51.59628253 -40.94680736 51.59628253 -34.54296875 58.26171875 C-28.98104058 61.34880446 -24.05153623 63.00978452 -17.7109375 61.78515625 C-12.9437044 60.24484086 -10.29100218 58.70643544 -7.5859375 54.41015625 C-4.7109375 51.78515625 -4.7109375 51.78515625 -1.43359375 51.77734375 C8.71511779 53.138884 8.71511779 53.138884 13.2890625 55.78515625 C7.92202958 65.88900232 1.83435544 72.73132402 -9.03515625 76.90234375 C-20.12361297 79.56545875 -33.62960261 79.52167341 -43.7109375 73.78515625 C-53.47915363 67.76194311 -58.94428336 59.63941812 -62.015625 48.64453125 C-64.48525354 34.93670539 -64.12696126 20.23083801 -55.9609375 8.47265625 C-41.54783148 -8.85910374 -19.17291327 -12.38631063 0 0 Z " fill="#1E265E" transform="translate(554.7109375,75.21484375)"/>
<path d="M0 0 C5.94 0 11.88 0 18 0 C18.495 19.8 18.495 19.8 19 40 C21.64 37.69 24.28 35.38 27 33 C35.0862655 28.4429097 43.97905447 27.6558259 52.95703125 29.66015625 C59.33192478 31.67465749 64.1455275 34.45460087 68 40 C71.4651763 46.78199643 73.13010707 53.28085531 73.11352539 60.8918457 C73.11341209 62.63308464 73.11341209 62.63308464 73.11329651 64.40950012 C73.10813522 65.65237289 73.10297394 66.89524567 73.09765625 68.17578125 C73.0962413 69.45607712 73.09482635 70.73637299 73.09336853 72.0554657 C73.08956397 75.4469704 73.07975143 78.83843177 73.06866455 82.22991943 C73.05840597 85.69559137 73.05386141 89.16127036 73.04882812 92.62695312 C73.03780755 99.4179899 73.02054722 106.20898563 73 113 C66.73 113 60.46 113 54 113 C53.9906543 111.41131104 53.98130859 109.82262207 53.97167969 108.18579102 C53.93166387 102.26461238 53.86587163 96.34394695 53.79248047 90.4230957 C53.7643382 87.86554582 53.74309031 85.30791006 53.72900391 82.75024414 C53.70748187 79.06351973 53.66078065 75.37782066 53.609375 71.69140625 C53.60814636 70.55667374 53.60691772 69.42194122 53.60565186 68.25282288 C53.48187139 61.47053231 52.70212211 55.81424607 49 50 C44.56747944 46.34317054 39.51991897 46.49407374 33.98046875 46.65234375 C29.79763075 47.14025015 26.16941113 48.14371141 23 51 C18.99875994 56.83628295 19.52470096 63.03087516 19.48828125 69.8359375 C19.47033005 71.07042633 19.45237885 72.30491516 19.43388367 73.57681274 C19.37981569 77.50950737 19.34589498 81.44208083 19.3125 85.375 C19.28095535 88.04561882 19.24483421 90.71615139 19.20898438 93.38671875 C19.12409063 99.92439172 19.05726182 106.46202897 19 113 C12.73 113 6.46 113 0 113 C0 75.71 0 38.42 0 0 Z " fill="#101C5B" transform="translate(777,39)"/>
<path d="M0 0 C7.40004024 5.77078768 10.0241812 13.06381352 12 22 C12.47267672 26.66820739 12.47117493 31.26888765 12.390625 35.95703125 C12.38496521 37.22600754 12.37930542 38.49498383 12.37347412 39.80241394 C12.3550577 43.12851525 12.31931443 46.45345302 12.2746582 49.77923584 C12.23327127 53.19191598 12.21537183 56.60471779 12.1953125 60.01757812 C12.1515045 66.67873934 12.08261246 73.33921163 12 80 C5.73 80 -0.54 80 -7 80 C-7.0093457 78.41131104 -7.01869141 76.82262207 -7.02832031 75.18579102 C-7.06833613 69.26461238 -7.13412837 63.34394695 -7.20751953 57.4230957 C-7.2356618 54.86554582 -7.25690969 52.30791006 -7.27099609 49.75024414 C-7.29251813 46.06351973 -7.33921935 42.37782066 -7.390625 38.69140625 C-7.39185364 37.55667374 -7.39308228 36.42194122 -7.39434814 35.25282288 C-7.51812861 28.47053231 -8.29787789 22.81424607 -12 17 C-16.48600589 13.29904514 -21.56276879 13.55863974 -27.15625 13.7109375 C-31.84655343 14.18769911 -34.65468883 15.91627711 -38.25 18.8125 C-43.02880569 24.78600711 -42.26166078 31.92727003 -42.1953125 39.1796875 C-42.19106766 40.93153854 -42.19106766 40.93153854 -42.18673706 42.71878052 C-42.17556973 46.43762591 -42.15047104 50.15622777 -42.125 53.875 C-42.11496576 56.40103818 -42.10584069 58.92708015 -42.09765625 61.453125 C-42.07564161 67.63551006 -42.04113508 73.81771378 -42 80 C-48.27 80 -54.54 80 -61 80 C-61 52.94 -61 25.88 -61 -2 C-55.06 -2 -49.12 -2 -43 -2 C-42.67 0.97 -42.34 3.94 -42 7 C-41.55011719 6.54109375 -41.10023438 6.0821875 -40.63671875 5.609375 C-29.47777713 -5.03522663 -13.72081464 -7.75615943 0 0 Z " fill="#1B235C" transform="translate(645,72)"/>
<path d="M0 0 C5.90702823 5.1686497 8.50982445 12.84789091 9.41601562 20.52392578 C9.61807321 24.43394422 9.71050297 28.33589623 9.75 32.25 C9.77780697 33.65823164 9.80703841 35.06643583 9.83764648 36.47460938 C9.92115697 40.64959568 9.9671821 44.82433779 10 49 C10.0098291 50.22912109 10.0196582 51.45824219 10.02978516 52.72460938 C10.06857097 59.15042655 10.05783082 65.57435304 10 72 C5.38 72 0.76 72 -4 72 C-4.495 68.535 -4.495 68.535 -5 65 C-5.56847656 65.40992188 -6.13695312 65.81984375 -6.72265625 66.2421875 C-7.49480469 66.78101563 -8.26695312 67.31984375 -9.0625 67.875 C-9.81660156 68.40867187 -10.57070313 68.94234375 -11.34765625 69.4921875 C-19.89952813 74.35378182 -31.41025909 74.40509995 -40.89453125 72.3828125 C-46.56143577 70.20100599 -50.11138839 66.28203265 -53 61 C-55.00454611 54.94946818 -55.05730017 47.5729604 -52.5625 41.6875 C-48.93163117 35.49217137 -42.75558873 32.29374843 -36.015625 30.40625 C-29.66130484 28.75330588 -23.34799313 28.22982206 -16.8125 27.8125 C-15.09836914 27.6897168 -15.09836914 27.6897168 -13.34960938 27.56445312 C-10.56693192 27.36652209 -7.78397675 27.17854635 -5 27 C-5.12129722 25.24024851 -5.25363963 23.48125607 -5.390625 21.72265625 C-5.46313477 20.74304932 -5.53564453 19.76344238 -5.61035156 18.75415039 C-6.14544094 14.97198044 -7.42345215 12.79126017 -10 10 C-15.73187656 7.10905353 -21.73319781 7.37726117 -28 8 C-32.28206584 9.84571803 -34.02499053 11.60429696 -35.875 15.75 C-36.24625 16.8225 -36.6175 17.895 -37 19 C-41.29 19 -45.58 19 -50 19 C-50 11.76324931 -48.3343848 7.34888213 -43.203125 2.1953125 C-30.94097614 -7.66345518 -13.317405 -8.06335633 0 0 Z " fill="#111B5B" transform="translate(729,224)"/>
<path d="M0 0 C6.53688799 5.17904177 9.34419164 11.47203252 10.75 19.55859375 C10.85951685 21.36752818 10.92505029 23.17946134 10.95532227 24.99145508 C10.9852401 26.58253838 10.9852401 26.58253838 11.01576233 28.20576477 C11.03247482 29.33926865 11.04918732 30.47277252 11.06640625 31.640625 C11.08718735 32.80994064 11.10796844 33.97925629 11.12937927 35.18400574 C11.19467414 38.91297628 11.25366659 42.64201622 11.3125 46.37109375 C11.35570429 48.90169984 11.39931919 51.43229895 11.44335938 53.96289062 C11.55033504 60.16138751 11.65165909 66.3599541 11.75 72.55859375 C7.13 72.55859375 2.51 72.55859375 -2.25 72.55859375 C-2.25 69.91859375 -2.25 67.27859375 -2.25 64.55859375 C-2.91 64.55859375 -3.57 64.55859375 -4.25 64.55859375 C-4.745 66.04359375 -4.745 66.04359375 -5.25 67.55859375 C-14.14209451 73.39998917 -24.29476701 76.01054578 -34.796875 74.09375 C-42.24713209 72.18603265 -47.11994197 68.99417122 -51.1875 62.43359375 C-53.47397059 55.98860476 -53.42160889 48.27657447 -50.5625 42.05859375 C-47.38607214 36.67538443 -42.84361426 34.07604882 -37.25 31.55859375 C-34.62128236 30.9104168 -32.09824782 30.37040526 -29.4375 29.93359375 C-28.70990479 29.80879639 -27.98230957 29.68399902 -27.23266602 29.55541992 C-19.27796592 28.27152434 -11.29338325 27.85053131 -3.25 27.55859375 C-3.53438952 25.66165514 -3.82783792 23.76607348 -4.125 21.87109375 C-4.28742187 20.81535156 -4.44984375 19.75960937 -4.6171875 18.671875 C-5.21524305 15.72958938 -5.92391088 13.24920936 -7.25 10.55859375 C-13.44472389 7.13519371 -22.11925248 7.66409446 -28.75 9.55859375 C-32.30742351 12.40453255 -33.47040616 15.38339282 -35.25 19.55859375 C-39.54 19.55859375 -43.83 19.55859375 -48.25 19.55859375 C-47.90306377 13.08245075 -46.56675432 8.50956316 -42.25 3.55859375 C-30.83427552 -6.10415431 -12.92466367 -8.27986266 0 0 Z " fill="#18215A" transform="translate(529.25,223.44140625)"/>
<path d="M0 0 C5.28 0 10.56 0 16 0 C26.18549449 28.60458504 36.25829741 57.24099007 46 86 C48.21389924 79.71027949 50.42162103 73.41841364 52.625 67.125 C52.95792053 66.17425598 53.29084106 65.22351196 53.6338501 64.24395752 C59.490338 47.49955877 65.15397368 30.69589681 70.69384766 13.84423828 C71.11872467 12.55691803 71.11872467 12.55691803 71.55218506 11.24359131 C72.08255751 9.63610958 72.61040243 8.02779098 73.13531494 6.41851807 C74.88762168 1.11237832 74.88762168 1.11237832 76 0 C78.53049402 -0.07313567 81.03304837 -0.09247527 83.5625 -0.0625 C84.62887695 -0.05573242 84.62887695 -0.05573242 85.71679688 -0.04882812 C87.47790013 -0.03700864 89.23896036 -0.01907263 91 0 C88.73743359 7.90321604 86.07582883 15.63704039 83.31640625 23.37890625 C82.85939984 24.66630138 82.40258156 25.95376331 81.94593811 27.24128723 C80.73639002 30.64942716 79.52364453 34.05642053 78.31006622 37.46312714 C77.56108251 39.56648069 76.81305757 41.67017267 76.06536865 43.77398682 C68.80037234 64.21554467 61.48229053 84.63680425 54 105 C48.72 105 43.44 105 38 105 C31.99365515 88.66899479 25.99446086 72.33537099 20 56 C19.55487061 54.78721375 19.10974121 53.57442749 18.65112305 52.32489014 C15.99979578 45.10051398 13.35089581 37.87525542 10.70523071 30.64880371 C9.86087491 28.34344671 9.01580376 26.03835159 8.17001343 23.73352051 C6.98509522 20.50404498 5.80276801 17.2736324 4.62109375 14.04296875 C4.09107758 12.60092323 4.09107758 12.60092323 3.550354 11.12974548 C3.22750427 10.24541336 2.90465454 9.36108124 2.57202148 8.44995117 C2.29100082 7.68285324 2.00998016 6.91575531 1.72044373 6.12541199 C1.0396093 4.11685311 0.51437251 2.05749003 0 0 Z " fill="#1B245F" transform="translate(387,192)"/>
<path d="M0 0 C5.94 0 11.88 0 18 0 C18 6.93 18 13.86 18 21 C25.26 21 32.52 21 40 21 C40.020625 23.454375 40.04125 25.90875 40.0625 28.4375 C40.071604 29.21150146 40.08070801 29.98550293 40.09008789 30.78295898 C40.09724913 32.52221717 40.05024702 34.26145304 40 36 C39 37 39 37 36.95874023 37.11352539 C35.64691772 37.10567017 35.64691772 37.10567017 34.30859375 37.09765625 C33.36435547 37.09443359 32.42011719 37.09121094 31.44726562 37.08789062 C30.45404297 37.07951172 29.46082031 37.07113281 28.4375 37.0625 C27.44041016 37.05798828 26.44332031 37.05347656 25.41601562 37.04882812 C22.94395151 37.03700007 20.47200482 37.02051849 18 37 C18.0194182 43.17536715 18.07113043 49.34930887 18.15258789 55.52416992 C18.17576296 57.62402578 18.19016244 59.7239978 18.19555664 61.82397461 C18.20484963 64.84562525 18.24584846 67.86545017 18.29296875 70.88671875 C18.2890361 71.82335861 18.28510345 72.75999847 18.28105164 73.72502136 C18.3821307 78.25606353 18.52676131 80.36701323 21.30859375 84.08789062 C24.75979887 86.53979905 27.72056274 86.77540215 31.8125 86.8125 C34.184375 86.874375 36.55625 86.93625 39 87 C39 91.95 39 96.9 39 102 C29.92132147 104.26966963 18.58830809 104.44176247 10.01953125 100.33984375 C5.39790495 97.27365841 2.1603227 93.08104539 0 88 C-0.24050903 85.54486084 -0.24050903 85.54486084 -0.22705078 82.77246094 C-0.22689972 81.73168396 -0.22674866 80.69090698 -0.22659302 79.61859131 C-0.21627045 78.50179993 -0.20594788 77.38500854 -0.1953125 76.234375 C-0.1924826 75.08584045 -0.18965271 73.93730591 -0.18673706 72.75396729 C-0.17554263 69.08587219 -0.15043904 65.4180213 -0.125 61.75 C-0.11496926 59.26302436 -0.10584358 56.77604489 -0.09765625 54.2890625 C-0.07560564 48.19261425 -0.04108052 42.09634853 0 36 C-3.96 36 -7.92 36 -12 36 C-12 31.05 -12 26.1 -12 21 C-8.04 21 -4.08 21 0 21 C0 14.07 0 7.14 0 0 Z " fill="#0F1B5A" transform="translate(721,49)"/>
<path d="M0 0 C7.06133098 5.36138093 10.52804986 12.36916778 12 21 C12.08345812 22.84004979 12.11783906 24.68272176 12.11352539 26.5246582 C12.11341209 28.14577263 12.11341209 28.14577263 12.11329651 29.79963684 C12.10813522 30.9550145 12.10297394 32.11039215 12.09765625 33.30078125 C12.0962413 34.49229294 12.09482635 35.68380463 12.09336853 36.91142273 C12.08777728 40.71180751 12.07522632 44.51213307 12.0625 48.3125 C12.05748387 50.89127519 12.05292116 53.4700513 12.04882812 56.04882812 C12.0378107 62.36590818 12.02055201 68.68294406 12 75 C7.71 75 3.42 75 -1 75 C-1.01458252 73.59830566 -1.02916504 72.19661133 -1.04418945 70.75244141 C-1.10248564 65.51521233 -1.17971563 60.27839918 -1.26245117 55.04150391 C-1.29555377 52.78180733 -1.32363059 50.52203099 -1.34643555 48.26220703 C-1.38025217 44.9999821 -1.43258116 41.73847861 -1.48828125 38.4765625 C-1.49467117 37.47823395 -1.5010611 36.4799054 -1.50764465 35.45132446 C-1.66624671 27.75732931 -2.74150021 20.61359966 -6.875 14 C-11.2482363 9.88401289 -15.61866459 9.53945084 -21.4375 9.6953125 C-26.47164842 10.29388502 -30.31312426 11.95225035 -33.5703125 15.90625 C-36.82215015 20.88620708 -38.09799113 25.00293715 -38.20532227 30.95214844 C-38.22526749 31.93286316 -38.24521271 32.91357788 -38.26576233 33.92401123 C-38.29083107 35.5007663 -38.29083107 35.5007663 -38.31640625 37.109375 C-38.33718735 38.19132141 -38.35796844 39.27326782 -38.37937927 40.38800049 C-38.44472931 43.84193613 -38.50369229 47.29594737 -38.5625 50.75 C-38.60569904 53.09245571 -38.64931378 55.4349038 -38.69335938 57.77734375 C-38.80039587 63.51815182 -38.90170448 69.25903588 -39 75 C-43.62 75 -48.24 75 -53 75 C-53 49.92 -53 24.84 -53 -1 C-48.38 -1 -43.76 -1 -39 -1 C-38.67 1.97 -38.34 4.94 -38 8 C-37.05125 6.9275 -36.1025 5.855 -35.125 4.75 C-26.28751301 -3.96376217 -10.91938211 -6.75847218 0 0 Z " fill="#111C5B" transform="translate(986,222)"/>
<path d="M0 0 C4.29 0 8.58 0 13 0 C13.01981934 1.37663818 13.03963867 2.75327637 13.06005859 4.17163086 C13.13649434 9.30999128 13.2251518 14.44808247 13.31738281 19.58618164 C13.35551631 21.80422628 13.39039561 24.02232946 13.421875 26.24047852 C13.46786647 29.44047889 13.52580329 32.64008158 13.5859375 35.83984375 C13.59748871 36.82145981 13.60903992 37.80307587 13.62094116 38.81443787 C13.77620154 46.16184194 14.25756321 53.50506097 18 60 C23.64753973 64.43161036 30.16834127 63.70048114 37 63 C41.18325398 61.7576578 43.53494133 59.5656119 46.3125 56.1875 C49.98337911 49.25361724 50.32224917 42.96434453 50.4140625 35.25390625 C50.43342865 34.24279282 50.4527948 33.23167938 50.4727478 32.18992615 C50.5322199 28.98086818 50.57879916 25.77177372 50.625 22.5625 C50.66320957 20.37824012 50.70226302 18.19399483 50.7421875 16.00976562 C50.83789478 10.67329646 50.92204488 5.33675681 51 0 C55.29 0 59.58 0 64 0 C64 24.75 64 49.5 64 75 C59.71 75 55.42 75 51 75 C50.505 71.04 50.505 71.04 50 67 C49.50371094 67.39832031 49.00742187 67.79664063 48.49609375 68.20703125 C47.81675781 68.73683594 47.13742187 69.26664062 46.4375 69.8125 C45.77621094 70.33457031 45.11492188 70.85664063 44.43359375 71.39453125 C38.6311363 75.2224767 33.49469609 76.56156876 26.6875 76.5 C25.94201904 76.49355469 25.19653809 76.48710937 24.4284668 76.48046875 C17.0489811 76.23691608 11.4879089 74.42941148 6.13671875 69.16796875 C-0.49768532 61.14018149 -0.28382062 52.14876555 -0.1953125 42.1875 C-0.1924826 40.97803711 -0.18965271 39.76857422 -0.18673706 38.52246094 C-0.17559396 34.68153752 -0.15049983 30.84085225 -0.125 27 C-0.11496263 24.38672213 -0.1058381 21.77344059 -0.09765625 19.16015625 C-0.07567379 12.77334655 -0.04118416 6.38671358 0 0 Z " fill="#18215C" transform="translate(595,221)"/>
<path d="M0 0 C6.53636377 3.90291142 9.67080715 10.08953338 11.5 17.3125 C12.50463063 27.5796042 11.57752226 36.58194131 6.6875 45.6875 C3.52034081 49.48809103 0.18335282 51.75138239 -4.5 53.3125 C-11.94837031 53.98561198 -18.33722151 53.87862644 -24.5 49.3125 C-31.68558673 42.12691327 -32.80401576 32.88647336 -32.81469727 23.19360352 C-32.67194028 16.23905779 -31.45218772 9.78236993 -26.8515625 4.375 C-19.49089277 -2.31067382 -9.21647422 -4.27104903 0 0 Z " fill="#FDFDFE" transform="translate(891.5,232.6875)"/>
<path d="M0 0 C4.62 0 9.24 0 14 0 C14 6.27 14 12.54 14 19 C20.6 19 27.2 19 34 19 C34 22.96 34 26.92 34 31 C27.4 31 20.8 31 14 31 C14.09707777 37.15677408 14.19989907 43.31289753 14.31738281 49.46923828 C14.35559706 51.5622782 14.39046298 53.6553821 14.421875 55.74853516 C14.46768959 58.76227641 14.52565719 61.77558008 14.5859375 64.7890625 C14.59748871 65.72054108 14.60903992 66.65201965 14.62094116 67.61172485 C14.72954889 72.42431876 15.02258355 76.52154936 17 81 C20.24242545 83.60286447 23.7308576 83.20538285 27.75 83.125 C29.50570312 83.09792969 29.50570312 83.09792969 31.296875 83.0703125 C32.63492188 83.03550781 32.63492188 83.03550781 34 83 C35.26237731 85.52475462 35.09856404 87.31200466 35.0625 90.125 C35.05347656 91.03507812 35.04445313 91.94515625 35.03515625 92.8828125 C35.02355469 93.58148438 35.01195312 94.28015625 35 95 C26.06816566 96.55336249 17.33754382 97.14400693 9 93 C5.14018499 89.81145716 1.52595494 86.12950898 0.66699219 81.01855469 C0.47069228 78.53101655 0.37552952 76.05702316 0.3125 73.5625 C0.27906494 72.62905762 0.24562988 71.69561523 0.21118164 70.73388672 C-0.2009251 57.49723243 -0.0873782 44.24115837 0 31 C-3.63 31 -7.26 31 -11 31 C-11 27.04 -11 23.08 -11 19 C-7.37 19 -3.74 19 0 19 C0 12.73 0 6.46 0 0 Z " fill="#111C5A" transform="translate(762,201)"/>
<path d="M0 0 C-0.66 0.33 -1.32 0.66 -2 1 C-2 3.31 -2 5.62 -2 8 C-2.99 8.33 -3.98 8.66 -5 9 C-0.05 9 4.9 9 10 9 C10.58114815 20.76825006 10.58114815 20.76825006 7.4140625 25.49609375 C4.74324246 28.33660677 1.51579553 30.34864149 -2 32 C-2.66 32 -3.32 32 -4 32 C-3.814375 33.093125 -3.62875 34.18625 -3.4375 35.3125 C-3 39 -3 39 -4 42 C-9.4955701 45.6637134 -17.54140191 44.59637043 -24 44 C-30.55010184 42.61085088 -34.11183323 39.39650385 -37.90625 34 C-41.01953669 28.3071329 -40.98628641 20.89849697 -39.421875 14.71484375 C-36.94138818 8.86314985 -32.60385187 5.73775969 -27 3 C-18.18892991 -0.24551647 -9.25319911 -1.77188919 0 0 Z " fill="#1C2663" transform="translate(715,253)"/>
<path d="M0 0 C6.27 0 12.54 0 19 0 C19 26.73 19 53.46 19 81 C12.73 81 6.46 81 0 81 C0 54.27 0 27.54 0 0 Z " fill="#1E2A66" transform="translate(676,70)"/>
<path d="M0 0 C4.62 0 9.24 0 14 0 C14.33 30.03 14.66 60.06 15 91 C19.455 91.99 19.455 91.99 24 93 C23.67 96.63 23.34 100.26 23 104 C10.10324417 104.68884749 10.10324417 104.68884749 6.375 102.1875 C5.59125 101.465625 4.8075 100.74375 4 100 C3.401875 99.484375 2.80375 98.96875 2.1875 98.4375 C-0.95001244 94.63945863 -0.13272633 89.66714077 -0.11352539 85.03051758 C-0.11367142 84.11324387 -0.11381744 83.19597015 -0.1139679 82.25090027 C-0.11327057 79.21541997 -0.10548656 76.18000084 -0.09765625 73.14453125 C-0.09579143 71.04131606 -0.09436783 68.93810043 -0.09336853 66.83488464 C-0.08954839 61.29630334 -0.07972237 55.7577482 -0.06866455 50.21917725 C-0.05843964 44.56864781 -0.05386859 38.91811415 -0.04882812 33.26757812 C-0.03809968 22.17837391 -0.02102926 11.08918913 0 0 Z " fill="#18215C" transform="translate(559,193)"/>
<path d="M0 0 C4.29 0 8.58 0 13 0 C14.66165207 1.66165207 14.11959725 3.6651603 14.12442017 5.88401794 C14.12082489 6.58172806 14.11722961 7.27943817 14.11352539 7.99829102 C14.11367142 8.72995483 14.11381744 9.46161865 14.1139679 10.2154541 C14.11326867 12.64496784 14.10547585 15.07440583 14.09765625 17.50390625 C14.0957921 19.18399514 14.09436819 20.86408457 14.09336853 22.54417419 C14.08954307 26.97473643 14.07971256 31.4052661 14.06866455 35.83581543 C14.05845103 40.35342976 14.05387104 44.87104934 14.04882812 49.38867188 C14.03809031 58.25913123 14.02049329 67.12955781 14 76 C9.38 76 4.76 76 0 76 C0 50.92 0 25.84 0 0 Z " fill="#16215E" transform="translate(814,220)"/>
<path d="M0 0 C0.75067131 11.53114548 0.75067131 11.53114548 -2.59375 16.5 C-7.11585135 21.32357477 -12.5229681 23.72597035 -19.0234375 24.23828125 C-30.24919614 24.48687031 -30.24919614 24.48687031 -35 20 C-36.8765272 16.2469456 -36.64859982 12.07783058 -36 8 C-31.71382985 2.58589034 -26.6256246 1.8429049 -20 1 C-19.16984375 0.88914062 -18.3396875 0.77828125 -17.484375 0.6640625 C-11.64875559 -0.01492466 -5.86967989 -0.11239813 0 0 Z " fill="#F9F9FB" transform="translate(725,262)"/>
<path d="M0 0 C1.0483477 10.91612843 1.0483477 10.91612843 -1.27734375 15.5390625 C-6.04167486 21.3081165 -10.84876037 23.59810303 -18.1875 24.30859375 C-27.80498407 24.6692494 -27.80498407 24.6692494 -31.75 22.125 C-34.87647179 19.17222109 -35.22993529 17.38282302 -35.4375 13.1875 C-35.36880111 9.220139 -35.2063306 8.26767212 -32.6875 5 C-24.05121104 -0.74404231 -9.99293838 -0.08856371 0 0 Z " fill="#F9F7F4" transform="translate(526,262)"/>
<path d="M0 0 C4.88986849 2.80868152 7.39725457 5.95861632 9.57421875 11.12890625 C9.57421875 13.10890625 9.57421875 15.08890625 9.57421875 17.12890625 C-2.63578125 17.12890625 -14.84578125 17.12890625 -27.42578125 17.12890625 C-26.37867226 9.79914329 -25.2467413 6.67465069 -19.86328125 1.81640625 C-14.28260307 -2.04714018 -6.32288523 -2.27053689 0 0 Z " fill="#FBF9F6" transform="translate(539.42578125,84.87109375)"/>
<path d="M0 0 C-0.99 0.66 -1.98 1.32 -3 2 C-2.979375 3.134375 -2.95875 4.26875 -2.9375 5.4375 C-3 9 -3 9 -4.4375 10.875 C-6.97720292 11.98999153 -8.64542169 12.22115905 -11.375 12.4375 C-15.89675441 12.83166609 -18.55535966 13.88342064 -22 17 C-23.30754061 19.30800729 -24.12557398 21.4738804 -25 24 C-29.29 24 -33.58 24 -38 24 C-38 16.76324931 -36.3343848 12.34888213 -31.203125 7.1953125 C-21.56323629 -0.55515803 -11.79664825 -0.39080921 0 0 Z " fill="#1D2763" transform="translate(717,219)"/>
<path d="M0 0 C2.97029419 1.82567215 4.59750581 3.81674555 6 7 C6.50198848 10.31086781 6.19729089 12.87536279 5 16 C2.55488004 18.92221654 0.81776758 20.59524857 -2.96484375 21.4375 C-8.02115811 21.74806058 -11.0607293 20.26671229 -15 17 C-16.72869779 13.54260443 -16.48966895 9.78024432 -16 6 C-12.00467093 -0.3925265 -7.21273075 -1.31040452 0 0 Z " fill="#1E2865" transform="translate(691,37)"/>
<path d="M0 0 C2.4375 1.5625 2.4375 1.5625 4 4 C4.70476018 8.93332128 4.77041398 10.84437903 2 15 C-1.32944864 17.21963243 -3.13918934 17.75539772 -7.0625 17.48046875 C-10.5685303 16.61102978 -12.01216563 14.91963173 -14 12 C-14.68577608 7.73294881 -14.50023114 5.79347009 -12.1875 2.125 C-8.26403475 -1.68636625 -5.10164568 -1.16353322 0 0 Z " fill="#111B59" transform="translate(826,192)"/>
<path d="M0 0 C0.33 0 0.66 0 1 0 C1 26.07 1 52.14 1 79 C6.28 79 11.56 79 17 79 C17 55.24 17 31.48 17 7 C17.33 7 17.66 7 18 7 C19.19388403 57.54003224 19.19388403 57.54003224 19 81 C12.73 81 6.46 81 0 81 C0 54.27 0 27.54 0 0 Z " fill="#121651" transform="translate(676,70)"/>
<path d="M0 0 C8 0 8 0 11 1 C11.33 3.64 11.66 6.28 12 9 C9.64031256 11.09749995 8.45383006 11.96905704 5.25 12.1875 C4.5075 12.125625 3.765 12.06375 3 12 C3 13.98 3 15.96 3 18 C2.01 18 1.02 18 0 18 C0 12.06 0 6.12 0 0 Z " fill="#FCE6E7" transform="translate(184,257)"/>
<path d="M0 0 C2.9375 1.1875 2.9375 1.1875 3.9375 3.1875 C4.00746014 4.89452735 4.02190154 6.60418003 4 8.3125 C3.99097656 9.22257813 3.98195312 10.13265625 3.97265625 11.0703125 C3.96105469 11.76898438 3.94945312 12.46765625 3.9375 13.1875 C2.29175434 13.21438151 0.64588587 13.23384123 -1 13.25 C-1.91652344 13.26160156 -2.83304688 13.27320313 -3.77734375 13.28515625 C-6.0625 13.1875 -6.0625 13.1875 -7.0625 12.1875 C-7.10330783 10.18791636 -7.10504356 8.18704746 -7.0625 6.1875 C-6.4025 5.8575 -5.7425 5.5275 -5.0625 5.1875 C-5.7225 4.8575 -6.3825 4.5275 -7.0625 4.1875 C-4.61805556 -1.22519841 -4.61805556 -1.22519841 0 0 Z " fill="#E35244" transform="translate(146.0625,231.8125)"/>
<path d="M0 0 C0.70125 0.00515625 1.4025 0.0103125 2.125 0.015625 C2.82625 0.01046875 3.5275 0.0053125 4.25 0 C6.125 0.265625 6.125 0.265625 8.125 2.265625 C8.125 3.255625 8.125 4.245625 8.125 5.265625 C7.5475 4.935625 6.97 4.605625 6.375 4.265625 C3.92616138 2.99486602 3.92616138 2.99486602 0.125 3.265625 C0.125 4.255625 0.125 5.245625 0.125 6.265625 C1.23875 6.719375 2.3525 7.173125 3.5 7.640625 C7.125 9.265625 7.125 9.265625 9.125 11.265625 C8.79528521 14.56277293 8.5023161 15.8883089 6.125 18.265625 C0.88771186 18.8475459 0.88771186 18.8475459 -1.875 18.265625 C-3.875 15.765625 -3.875 15.765625 -4.875 13.265625 C-4.0396875 13.4821875 -4.0396875 13.4821875 -3.1875 13.703125 C-0.76115805 14.29331628 1.67406345 14.789054 4.125 15.265625 C4.125 13.945625 4.125 12.625625 4.125 11.265625 C1.485 10.275625 -1.155 9.285625 -3.875 8.265625 C-4 5.390625 -4 5.390625 -3.875 2.265625 C-1.875 0.265625 -1.875 0.265625 0 0 Z " fill="#5C9978" transform="translate(246.875,256.734375)"/>
<path d="M0 0 C3 4.17857143 3 4.17857143 3 7 C0.03 7 -2.94 7 -6 7 C-6 7.99 -6 8.98 -6 10 C-3.36 9.67 -0.72 9.34 2 9 C1.34 10.32 0.68 11.64 0 13 C-3.375 13.125 -3.375 13.125 -7 13 C-9.60704898 10.39295102 -9.23905333 8.52661759 -9.265625 4.97265625 C-9 3 -9 3 -7 0 C-3.84150454 -1.05283182 -2.969245 -1.29904469 0 0 Z " fill="#E35345" transform="translate(104,232)"/>
<path d="M0 0 C0 3 0 3 -2 6 C-1.67 6.99 -1.34 7.98 -1 9 C-0.67 8.67 -0.34 8.34 0 8 C2.9375 7.8125 2.9375 7.8125 6 8 C8 10 8 10 8.1953125 12.6015625 C8.17210937 13.59929687 8.14890625 14.59703125 8.125 15.625 C8.10695312 16.62789063 8.08890625 17.63078125 8.0703125 18.6640625 C8.03550781 19.82035156 8.03550781 19.82035156 8 21 C4.4389927 19.51491624 2.39978977 17.51458829 -0.125 14.625 C-0.80820313 13.85414063 -1.49140625 13.08328125 -2.1953125 12.2890625 C-3.80851927 10.24287383 -4.94932355 8.37214579 -6 6 C-4.02 4.02 -2.04 2.04 0 0 Z " fill="#559A78" transform="translate(200,254)"/>
<path d="M0 0 C2.875 -0.125 2.875 -0.125 6 0 C8 2 8 2 8.1953125 4.6015625 C8.17210937 5.59929687 8.14890625 6.59703125 8.125 7.625 C8.10695313 8.62789062 8.08890625 9.63078125 8.0703125 10.6640625 C8.03550781 11.82035156 8.03550781 11.82035156 8 13 C6.54207116 13.05399736 5.08357288 13.09279177 3.625 13.125 C2.81289063 13.14820312 2.00078125 13.17140625 1.1640625 13.1953125 C-1 13 -1 13 -3 11 C-3 9.68 -3 8.36 -3 7 C-0.08235 5.0549 1.62537285 4.54723683 5 4 C5 3.34 5 2.68 5 2 C2.69 2.66 0.38 3.32 -2 4 C-1.34 2.68 -0.68 1.36 0 0 Z " fill="#FEE9EA" transform="translate(949,61)"/>
<path d="M0 0 C3.5 -0.375 3.5 -0.375 7 0 C9 3 9 3 9 7 C6.36 7 3.72 7 1 7 C1.33 7.99 1.66 8.98 2 10 C5.465 9.505 5.465 9.505 9 9 C8.34 10.32 7.68 11.64 7 13 C1.63157895 13.35789474 1.63157895 13.35789474 -0.875 11.9375 C-2.62409203 8.92517484 -2.30401551 6.40497373 -2 3 C-1.34 2.01 -0.68 1.02 0 0 Z " fill="#FEE9EA" transform="translate(904,61)"/>
<path d="M0 0 C3.5 -0.375 3.5 -0.375 7 0 C9 3 9 3 9 7 C6.36 7 3.72 7 1 7 C1.33 7.99 1.66 8.98 2 10 C5.465 9.505 5.465 9.505 9 9 C8.34 10.32 7.68 11.64 7 13 C1.63157895 13.35789474 1.63157895 13.35789474 -0.875 11.9375 C-2.62409203 8.92517484 -2.30401551 6.40497373 -2 3 C-1.34 2.01 -0.68 1.02 0 0 Z " fill="#FEE9EA" transform="translate(891,61)"/>
<path d="M0 0 C3.3 0 6.6 0 10 0 C11.32229189 2.64458379 11.09677194 4.67761301 11.0625 7.625 C11.05347656 8.62789063 11.04445312 9.63078125 11.03515625 10.6640625 C11.02355469 11.43492187 11.01195312 12.20578125 11 13 C10.34 13 9.68 13 9 13 C8.67 9.37 8.34 5.74 8 2 C6.68 2.33 5.36 2.66 4 3 C3.67 6.3 3.34 9.6 3 13 C2.01 13 1.02 13 0 13 C0 8.71 0 4.42 0 0 Z " fill="#5C9978" transform="translate(216,262)"/>
<path d="M0 0 C4.62 0 9.24 0 14 0 C14 0.66 14 1.32 14 2 C12.35 2.33 10.7 2.66 9 3 C8.67 7.95 8.34 12.9 8 18 C7.01 18 6.02 18 5 18 C5 12.72 5 7.44 5 2 C3.35 2 1.7 2 0 2 C0 1.34 0 0.68 0 0 Z " fill="#E45445" transform="translate(113,227)"/>
<path d="M0 0 C0.33 0 0.66 0 1 0 C1 8.58 1 17.16 1 26 C-5.27 26 -11.54 26 -18 26 C-17.67 25.34 -17.34 24.68 -17 24 C-11.72 24 -6.44 24 -1 24 C-1.020625 21.525 -1.04125 19.05 -1.0625 16.5 C-1.0856549 10.91119873 -0.92108592 5.52651554 0 0 Z " fill="#242B62" transform="translate(602,126)"/>
<path d="M0 0 C0.99 0.33 1.98 0.66 3 1 C2.12803306 3.49004991 1.22964148 5.96413312 0.3125 8.4375 C0.06822266 9.14455078 -0.17605469 9.85160156 -0.42773438 10.58007812 C-1.19921875 12.62109375 -1.19921875 12.62109375 -3 16 C-5.70703125 16.97265625 -5.70703125 16.97265625 -8 17 C-8 16.34 -8 15.68 -8 15 C-7.34 14.67 -6.68 14.34 -6 14 C-6 12.02 -6 10.04 -6 8 C-6.66 7.67 -7.32 7.34 -8 7 C-6.74057614 5.80040625 -5.46704714 4.61560557 -4.1875 3.4375 C-3.12595703 2.44556641 -3.12595703 2.44556641 -2.04296875 1.43359375 C-1.36878906 0.96050781 -0.69460937 0.48742187 0 0 Z " fill="#FDE5E5" transform="translate(174,262)"/>
<path d="M0 0 C4.29 0 8.58 0 13 0 C13 0.66 13 1.32 13 2 C11.35 2 9.7 2 8 2 C8 7.28 8 12.56 8 18 C7.01 18 6.02 18 5 18 C5 12.72 5 7.44 5 2 C3.35 2 1.7 2 0 2 C0 1.34 0 0.68 0 0 Z " fill="#FDE6E8" transform="translate(921,56)"/>
<path d="M0 0 C0.66 0 1.32 0 2 0 C2.02685095 2.47923801 2.04676547 4.9581884 2.0625 7.4375 C2.07087891 8.14455078 2.07925781 8.85160156 2.08789062 9.58007812 C2.09653588 11.38693559 2.05220011 13.19387603 2 15 C1 16 1 16 -1.04125977 16.11352539 C-1.91580811 16.10828857 -2.79035645 16.10305176 -3.69140625 16.09765625 C-4.63564453 16.09443359 -5.57988281 16.09121094 -6.55273438 16.08789062 C-8.04256836 16.07532227 -8.04256836 16.07532227 -9.5625 16.0625 C-10.55958984 16.05798828 -11.55667969 16.05347656 -12.58398438 16.04882812 C-15.05604849 16.03700007 -17.52799518 16.02051849 -20 16 C-20 15.34 -20 14.68 -20 14 C-13.4 14 -6.8 14 0 14 C0 9.38 0 4.76 0 0 Z " fill="#373C6F" transform="translate(759,70)"/>
<path d="M0 0 C3.63 0 7.26 0 11 0 C11 0.66 11 1.32 11 2 C8.03 2 5.06 2 2 2 C2 3.98 2 5.96 2 8 C4.64 8 7.28 8 10 8 C10 8.66 10 9.32 10 10 C7.36 10 4.72 10 2 10 C2 12.64 2 15.28 2 18 C1.34 18 0.68 18 0 18 C0 12.06 0 6.12 0 0 Z " fill="#FDE5E6" transform="translate(869,56)"/>
<path d="M0 0 C0.7425 0.2475 1.485 0.495 2.25 0.75 C1.92 2.07 1.59 3.39 1.25 4.75 C1.25 4.09 1.25 3.43 1.25 2.75 C-0.73 3.74 -0.73 3.74 -2.75 4.75 C-2.75 6.4 -2.75 8.05 -2.75 9.75 C-1.1 9.75 0.55 9.75 2.25 9.75 C2.25 11.07 2.25 12.39 2.25 13.75 C-3.11842105 14.10789474 -3.11842105 14.10789474 -5.625 12.6875 C-7.41830867 9.59902396 -7.17841969 7.23856031 -6.75 3.75 C-4.63014918 0.60948026 -3.8412427 -0.34920388 0 0 Z " fill="#1D2966" transform="translate(845.75,90.25)"/>
<path d="M0 0 C0.99 0 1.98 0 3 0 C3 1.32 3 2.64 3 4 C3.99 4 4.98 4 6 4 C6 4.66 6 5.32 6 6 C5.01 6 4.02 6 3 6 C3 8.97 3 11.94 3 15 C3.99 15 4.98 15 6 15 C6 15.66 6 16.32 6 17 C4.35 16.67 2.7 16.34 1 16 C-1.48063781 5.62642369 -1.48063781 5.62642369 0 0 Z " fill="#5B9A79" transform="translate(230,258)"/>
<path d="M0 0 C0.99 0 1.98 0 3 0 C3 5.94 3 11.88 3 18 C2.01 18 1.02 18 0 18 C0 12.06 0 6.12 0 0 Z " fill="#E35445" transform="translate(152,227)"/>
<path d="M0 0 C4.75 0.75 4.75 0.75 7 3 C7.625 5.625 7.625 5.625 8 8 C5.36 8 2.72 8 0 8 C-1.125 2.25 -1.125 2.25 0 0 Z " fill="#1B2662" transform="translate(830,90)"/>
<path d="M0 0 C0.66 0.33 1.32 0.66 2 1 C1.83628906 1.90878906 1.67257812 2.81757812 1.50390625 3.75390625 C0.73606421 9.12880056 0.8937851 14.52021545 0.9375 19.9375 C0.94201172 21.00291016 0.94652344 22.06832031 0.95117188 23.16601562 C0.96288213 25.77740291 0.97928276 28.38867124 1 31 C0.67 31 0.34 31 0 31 C-0.01981934 30.40985107 -0.03963867 29.81970215 -0.06005859 29.21166992 C-0.15534659 26.53649904 -0.26500939 23.86210502 -0.375 21.1875 C-0.42140625 19.7943457 -0.42140625 19.7943457 -0.46875 18.37304688 C-0.50742187 17.48037109 -0.54609375 16.58769531 -0.5859375 15.66796875 C-0.6173584 14.84578857 -0.6487793 14.0236084 -0.68115234 13.17651367 C-0.88373622 10.71047063 -0.88373622 10.71047063 -3 8 C-3.3125 5.5 -3.3125 5.5 -3 3 C-1.5 1.1875 -1.5 1.1875 0 0 Z " fill="#424D81" transform="translate(795,91)"/>
<path d="M0 0 C0 0.99 0 1.98 0 3 C-0.99 3.33 -1.98 3.66 -3 4 C-3.33 7.3 -3.66 10.6 -4 14 C-4.99 14 -5.98 14 -7 14 C-7 9.71 -7 5.42 -7 1 C-2 0 -2 0 0 0 Z " fill="#1D2966" transform="translate(792,90)"/>
<path d="M0 0 C0 0.66 0 1.32 0 2 C-0.99 2.33 -1.98 2.66 -3 3 C-3.33 6.3 -3.66 9.6 -4 13 C-4.99 13 -5.98 13 -7 13 C-7 8.71 -7 4.42 -7 0 C-2 -1 -2 -1 0 0 Z " fill="#E35446" transform="translate(81,232)"/>
<path d="M0 0 C2.31 0 4.62 0 7 0 C7 0.66 7 1.32 7 2 C6.01 2.33 5.02 2.66 4 3 C3.67 6.3 3.34 9.6 3 13 C2.01 13 1.02 13 0 13 C0 8.71 0 4.42 0 0 Z " fill="#FEE8E9" transform="translate(933,61)"/>
<path d="M0 0 C2.375 -0.125 2.375 -0.125 5 0 C5.66 0.66 6.32 1.32 7 2 C6.625 4.625 6.625 4.625 6 7 C4.02 7 2.04 7 0 7 C0 4.69 0 2.38 0 0 Z " fill="#FEFCFC" transform="translate(187,259)"/>
<path d="M0 0 C0.99 0 1.98 0 3 0 C3 4.29 3 8.58 3 13 C2.01 13 1.02 13 0 13 C0 8.71 0 4.42 0 0 Z " fill="#E35446" transform="translate(134,232)"/>
<path d="M0 0 C0.99 0 1.98 0 3 0 C3 4.29 3 8.58 3 13 C2.01 13 1.02 13 0 13 C0 8.71 0 4.42 0 0 Z " fill="#FEE8E9" transform="translate(941,61)"/>
<path d="M0 0 C0.99 0.33 1.98 0.66 3 1 C2.01 3.64 1.02 6.28 0 9 C-1.32 9 -2.64 9 -4 9 C-4.8125 7.3125 -4.8125 7.3125 -5 5 C-2.5625 2.25 -2.5625 2.25 0 0 Z " fill="#FEEEEF" transform="translate(174,262)"/>
<path d="M0 0 C5.28 0 10.56 0 16 0 C16.33 1.32 16.66 2.64 17 4 C16.34 4 15.68 4 15 4 C15 3.34 15 2.68 15 2 C10.38 2.33 5.76 2.66 1 3 C0.67 2.01 0.34 1.02 0 0 Z " fill="#2F3366" transform="translate(387,192)"/>
<path d="M0 0 C4.29 0 8.58 0 13 0 C12.67 0.66 12.34 1.32 12 2 C8.7 2 5.4 2 2 2 C2 3.65 2 5.3 2 7 C1.01 7.495 1.01 7.495 0 8 C0 5.36 0 2.72 0 0 Z " fill="#0F1554" transform="translate(709,70)"/>
<path d="M0 0 C0.99 0 1.98 0 3 0 C3 3.96 3 7.92 3 12 C2.01 12 1.02 12 0 12 C0 8.04 0 4.08 0 0 Z " fill="#1C2765" transform="translate(711,72)"/>
<path d="M0 0 C0.33 0 0.66 0 1 0 C1 2.31 1 4.62 1 7 C4.63 7 8.26 7 12 7 C12 7.33 12 7.66 12 8 C4.64206267 8.91160286 -2.58982977 9.11459026 -10 9 C-10 8.67 -10 8.34 -10 8 C-6.7 7.67 -3.4 7.34 0 7 C0 4.69 0 2.38 0 0 Z " fill="#0E134F" transform="translate(713,254)"/>
<path d="M0 0 C1.98 0 3.96 0 6 0 C6 0.66 6 1.32 6 2 C5.01 2.33 4.02 2.66 3 3 C2.67 6.3 2.34 9.6 2 13 C1.34 13 0.68 13 0 13 C0 8.71 0 4.42 0 0 Z " fill="#FDE4E5" transform="translate(882,61)"/>
<path d="M0 0 C2.5 2.3125 2.5 2.3125 5 5 C5 5.99 5 6.98 5 8 C3.33388095 8.042721 1.66617115 8.04063832 0 8 C-0.33 7.67 -0.66 7.34 -1 7 C-0.71269945 4.66055264 -0.38063221 2.3260857 0 0 Z " fill="#F9E9E9" transform="translate(199,267)"/>
<path d="M0 0 C0 3 0 3 -1.96875 5.26171875 C-2.8040625 6.06222656 -3.639375 6.86273438 -4.5 7.6875 C-5.3353125 8.49574219 -6.170625 9.30398437 -7.03125 10.13671875 C-7.6809375 10.75160156 -8.330625 11.36648437 -9 12 C-9.66 11.67 -10.32 11.34 -11 11 C-9.92173635 9.72486237 -8.83714481 8.45507431 -7.75 7.1875 C-7.14671875 6.47980469 -6.5434375 5.77210938 -5.921875 5.04296875 C-4.07629602 3.08110329 -2.20054668 1.54330375 0 0 Z " fill="#DC3C2F" transform="translate(94,185)"/>
<path d="M0 0 C1.22589844 0.01353516 1.22589844 0.01353516 2.4765625 0.02734375 C3.41628906 0.04474609 3.41628906 0.04474609 4.375 0.0625 C4.375 0.3925 4.375 0.7225 4.375 1.0625 C2.5496875 1.1553125 2.5496875 1.1553125 0.6875 1.25 C-2.64760396 1.68167126 -3.70716898 2.12194139 -6.5625 4.1875 C-8.98006808 7.55744339 -9.38389617 9.96373495 -9.625 14.0625 C-9.955 14.0625 -10.285 14.0625 -10.625 14.0625 C-11.11529622 6.83063075 -11.11529622 6.83063075 -8.75 3.125 C-5.70483388 0.16939759 -4.12760769 -0.05896582 0 0 Z " fill="#14164F" transform="translate(685.625,36.9375)"/>
<path d="M0 0 C0.33 0.99 0.66 1.98 1 3 C-1.97 5.97 -4.94 8.94 -8 12 C-8.66 11.67 -9.32 11.34 -10 11 C-6.7 7.37 -3.4 3.74 0 0 Z " fill="#409F7A" transform="translate(211,242)"/>
<path d="M0 0 C0 3 0 3 -2 6 C-1.67 6.99 -1.34 7.98 -1 9 C-0.65772583 10.33106622 -0.32248257 11.66400079 0 13 C-2.5 10.6875 -2.5 10.6875 -5 8 C-5 5 -5 5 -2.5 2.3125 C-1.675 1.549375 -0.85 0.78625 0 0 Z " fill="#429772" transform="translate(200,254)"/>
<path d="M0 0 C1.7074998 1.28062485 3.37373596 2.61767557 5 4 C5 4.66 5 5.32 5 6 C2.03 5.67 -0.94 5.34 -4 5 C-4 4.67 -4 4.34 -4 4 C-2.35 3.67 -0.7 3.34 1 3 C0.67 2.01 0.34 1.02 0 0 Z " fill="#3C154F" transform="translate(241,161)"/>
<path d="M0 0 C0.33 0.99 0.66 1.98 1 3 C-0.43359375 5.26171875 -0.43359375 5.26171875 -2.4375 7.6875 C-3.09621094 8.49574219 -3.75492187 9.30398437 -4.43359375 10.13671875 C-4.95050781 10.75160156 -5.46742188 11.36648437 -6 12 C-6.33 11.01 -6.66 10.02 -7 9 C-5.56640625 6.73828125 -5.56640625 6.73828125 -3.5625 4.3125 C-2.90378906 3.50425781 -2.24507813 2.69601563 -1.56640625 1.86328125 C-1.04949219 1.24839844 -0.53257812 0.63351563 0 0 Z " fill="#111553" transform="translate(406,123)"/>
<path d="M0 0 C2.97 0 5.94 0 9 0 C9 0.66 9 1.32 9 2 C6.36 2.33 3.72 2.66 1 3 C0.67 2.01 0.34 1.02 0 0 Z " fill="#E35345" transform="translate(63,235)"/>
<path d="M0 0 C0.33 0.99 0.66 1.98 1 3 C-0.62339805 4.70884005 -2.29319053 6.37446717 -4 8 C-4.66 8 -5.32 8 -6 8 C-4.55746343 4.63408134 -2.66735273 2.48952921 0 0 Z " fill="#0A1150" transform="translate(955,223)"/>
<path d="M0 0 C0.99 0.33 1.98 0.66 3 1 C0.69 3.64 -1.62 6.28 -4 9 C-4.33 8.34 -4.66 7.68 -5 7 C-1.125 1.125 -1.125 1.125 0 0 Z " fill="#3D144E" transform="translate(64,37)"/>
<path d="M0 0 C0.66 0 1.32 0 2 0 C1.21681311 3.91593446 -0.39179858 7.36406635 -2 11 C-2.33 11 -2.66 11 -3 11 C-2.53199289 6.94393835 -2.12046792 3.53411321 0 0 Z " fill="#14194F" transform="translate(485,229)"/>
<path d="M0 0 C0.99 0 1.98 0 3 0 C2.1875 2.4375 2.1875 2.4375 1 5 C0.01 5.33 -0.98 5.66 -2 6 C-1.125 1.125 -1.125 1.125 0 0 Z " fill="#1D2966" transform="translate(780,98)"/>
<path d="M0 0 C1.9375 0.75 1.9375 0.75 4 2 C4.75 4.125 4.75 4.125 5 6 C4.01 6 3.02 6 2 6 C0 3 0 3 0 0 Z " fill="#1D2966" transform="translate(778,86)"/>
</svg>
